<svg xmlns="http://www.w3.org/2000/svg" xmlns:xlink="http://www.w3.org/1999/xlink" width="2000" zoomAndPan="magnify" viewBox="0 0 1500 1499.999933" height="2000" preserveAspectRatio="xMidYMid meet" version="1.0"><defs><g/><clipPath id="3705dce3de"><path d="M 287 502 L 646 502 L 646 862 L 287 862 Z M 287 502 " clip-rule="nonzero"/></clipPath><clipPath id="6d78d40e00"><path d="M 515.054688 930.496094 L 217.242188 632.6875 L 417.347656 432.585938 L 715.15625 730.394531 Z M 515.054688 930.496094 " clip-rule="nonzero"/></clipPath><clipPath id="96b42ddb66"><path d="M 366.441406 781.886719 C 448.515625 863.960938 559.847656 885.703125 615.105469 830.445312 C 670.363281 775.1875 648.621094 663.859375 566.542969 581.78125 C 484.46875 499.707031 373.136719 477.964844 317.882812 533.222656 C 262.625 588.480469 284.367188 699.808594 366.441406 781.886719 Z M 366.441406 781.886719 " clip-rule="nonzero"/></clipPath><clipPath id="e42fb42fde"><path d="M 0 0 L 359 0 L 359 360 L 0 360 Z M 0 0 " clip-rule="nonzero"/></clipPath><clipPath id="f703682984"><path d="M 228.054688 428.496094 L -69.757812 130.6875 L 130.347656 -69.414062 L 428.15625 228.394531 Z M 228.054688 428.496094 " clip-rule="nonzero"/></clipPath><clipPath id="1a0a1cf44e"><path d="M 79.441406 279.886719 C 161.515625 361.960938 272.847656 383.703125 328.105469 328.445312 C 383.363281 273.1875 361.621094 161.859375 279.542969 79.78125 C 197.46875 -2.292969 86.136719 -24.035156 30.882812 31.222656 C -24.375 86.480469 -2.632812 197.808594 79.441406 279.886719 Z M 79.441406 279.886719 " clip-rule="nonzero"/></clipPath><clipPath id="b16b3e3cdb"><rect x="0" width="359" y="0" height="360"/></clipPath><clipPath id="7cf5225d6d"><path d="M 287 502 L 646 502 L 646 862 L 287 862 Z M 287 502 " clip-rule="nonzero"/></clipPath><clipPath id="ffce183772"><path d="M 515.054688 930.496094 L 217.808594 633.25 L 417.867188 433.191406 L 715.113281 730.4375 Z M 515.054688 930.496094 " clip-rule="nonzero"/></clipPath><clipPath id="f01fbcc21c"><path d="M 515.054688 930.496094 L 215.578125 631.019531 L 416.074219 430.523438 L 715.550781 730 Z M 515.054688 930.496094 " clip-rule="nonzero"/></clipPath><clipPath id="6dacb73bb0"><path d="M 366.441406 781.886719 C 448.519531 863.960938 559.847656 885.703125 615.105469 830.445312 C 670.359375 775.191406 648.617188 663.859375 566.542969 581.785156 C 484.46875 499.710938 373.140625 477.96875 317.882812 533.226562 C 262.628906 588.480469 284.367188 699.8125 366.441406 781.886719 Z M 366.441406 781.886719 " clip-rule="nonzero"/></clipPath><clipPath id="236f37a6eb"><path d="M 266 481 L 667 481 L 667 883 L 266 883 Z M 266 481 " clip-rule="nonzero"/></clipPath><clipPath id="ef3eba2f92"><path d="M 730.789062 579.96875 L 364.054688 946.707031 L 201.625 784.277344 L 568.359375 417.542969 Z M 730.789062 579.96875 " clip-rule="nonzero"/></clipPath><clipPath id="10ea721a25"><path d="M 547.710938 763.050781 C 648.824219 661.9375 694.429688 543.609375 649.574219 498.757812 C 604.722656 453.902344 486.394531 499.507812 385.28125 600.621094 C 284.167969 701.734375 238.5625 820.0625 283.414062 864.917969 C 328.269531 909.769531 446.597656 864.164062 547.710938 763.050781 Z M 547.710938 763.050781 " clip-rule="nonzero"/></clipPath><clipPath id="5bb8bf11a7"><path d="M 0 0 L 401 0 L 401 402 L 0 402 Z M 0 0 " clip-rule="nonzero"/></clipPath><clipPath id="d50c38f461"><path d="M 464.789062 98.96875 L 98.054688 465.707031 L -64.375 303.277344 L 302.359375 -63.457031 Z M 464.789062 98.96875 " clip-rule="nonzero"/></clipPath><clipPath id="f94cbc8084"><path d="M 281.710938 282.050781 C 382.824219 180.9375 428.429688 62.609375 383.574219 17.757812 C 338.722656 -27.097656 220.394531 18.507812 119.28125 119.621094 C 18.167969 220.734375 -27.4375 339.0625 17.414062 383.917969 C 62.269531 428.769531 180.597656 383.164062 281.710938 282.050781 Z M 281.710938 282.050781 " clip-rule="nonzero"/></clipPath><clipPath id="7ba3ff80fb"><rect x="0" width="401" y="0" height="402"/></clipPath><clipPath id="d0f5b6d3fd"><path d="M 266 481 L 667 481 L 667 883 L 266 883 Z M 266 481 " clip-rule="nonzero"/></clipPath><clipPath id="81b692aa21"><path d="M 730.789062 579.96875 L 364.511719 946.25 L 202.082031 783.820312 L 568.359375 417.542969 Z M 730.789062 579.96875 " clip-rule="nonzero"/></clipPath><clipPath id="ab474c6ce9"><path d="M 730.789062 579.96875 L 362.785156 947.972656 L 200.359375 785.542969 L 568.359375 417.542969 Z M 730.789062 579.96875 " clip-rule="nonzero"/></clipPath><clipPath id="3b3fbbc646"><path d="M 547.710938 763.050781 C 648.824219 661.9375 694.429688 543.609375 649.574219 498.757812 C 604.722656 453.902344 486.394531 499.507812 385.28125 600.621094 C 284.167969 701.734375 238.5625 820.0625 283.414062 864.914062 C 328.269531 909.769531 446.597656 864.164062 547.710938 763.050781 Z M 547.710938 763.050781 " clip-rule="nonzero"/></clipPath><clipPath id="7a37fbf268"><path d="M 396.25 611.59375 L 536.597656 611.59375 L 536.597656 751.9375 L 396.25 751.9375 Z M 396.25 611.59375 " clip-rule="nonzero"/></clipPath><clipPath id="a8c8ed1837"><path d="M 326.078125 681.765625 L 466.308594 541.535156 L 606.539062 681.765625 L 466.308594 821.996094 Z M 326.078125 681.765625 " clip-rule="nonzero"/></clipPath><clipPath id="44d43e1e1c"><path d="M 326.078125 681.765625 L 466.421875 541.421875 L 606.769531 681.765625 L 466.421875 822.109375 Z M 326.078125 681.765625 " clip-rule="nonzero"/></clipPath><clipPath id="6152ea2507"><path d="M 382 729 L 419 729 L 419 766 L 382 766 Z M 382 729 " clip-rule="nonzero"/></clipPath><clipPath id="1130fabbd5"><path d="M 375.425781 747.335938 L 400.851562 721.910156 L 426.28125 747.335938 L 400.851562 772.765625 Z M 375.425781 747.335938 " clip-rule="nonzero"/></clipPath><clipPath id="57acf093a6"><path d="M 388.140625 734.625 C 381.117188 741.644531 381.117188 753.03125 388.140625 760.050781 C 395.160156 767.070312 406.546875 767.070312 413.566406 760.050781 C 420.585938 753.03125 420.585938 741.644531 413.566406 734.625 C 406.546875 727.601562 395.160156 727.601562 388.140625 734.625 Z M 388.140625 734.625 " clip-rule="nonzero"/></clipPath><clipPath id="efab510fe4"><path d="M 0 0 L 37 0 L 37 37 L 0 37 Z M 0 0 " clip-rule="nonzero"/></clipPath><clipPath id="c05f3d4485"><path d="M -6.574219 18.335938 L 18.851562 -7.089844 L 44.28125 18.335938 L 18.851562 43.765625 Z M -6.574219 18.335938 " clip-rule="nonzero"/></clipPath><clipPath id="f34c8e269a"><path d="M 6.140625 5.625 C -0.882812 12.644531 -0.882812 24.03125 6.140625 31.050781 C 13.160156 38.070312 24.546875 38.070312 31.566406 31.050781 C 38.585938 24.03125 38.585938 12.644531 31.566406 5.625 C 24.546875 -1.398438 13.160156 -1.398438 6.140625 5.625 Z M 6.140625 5.625 " clip-rule="nonzero"/></clipPath><clipPath id="d44629adfa"><rect x="0" width="37" y="0" height="37"/></clipPath><clipPath id="28e0675cbd"><path d="M 382 729 L 419 729 L 419 766 L 382 766 Z M 382 729 " clip-rule="nonzero"/></clipPath><clipPath id="c1625c673c"><path d="M 375.425781 747.335938 L 400.875 721.890625 L 426.320312 747.335938 L 400.875 772.785156 Z M 375.425781 747.335938 " clip-rule="nonzero"/></clipPath><clipPath id="5674478aa3"><path d="M 375.425781 747.335938 L 400.851562 721.910156 L 426.277344 747.335938 L 400.851562 772.765625 Z M 375.425781 747.335938 " clip-rule="nonzero"/></clipPath><clipPath id="d75eccfd66"><path d="M 388.140625 734.625 C 381.117188 741.644531 381.117188 753.03125 388.140625 760.050781 C 395.160156 767.070312 406.542969 767.070312 413.566406 760.050781 C 420.585938 753.03125 420.585938 741.644531 413.566406 734.625 C 406.542969 727.601562 395.160156 727.601562 388.140625 734.625 Z M 388.140625 734.625 " clip-rule="nonzero"/></clipPath><clipPath id="b83cad68ec"><path d="M 448 663 L 485 663 L 485 700 L 448 700 Z M 448 663 " clip-rule="nonzero"/></clipPath><clipPath id="3f5f0bf7f8"><path d="M 441 681.765625 L 466.425781 656.339844 L 491.851562 681.765625 L 466.425781 707.191406 Z M 441 681.765625 " clip-rule="nonzero"/></clipPath><clipPath id="542018b018"><path d="M 453.710938 669.050781 C 446.691406 676.074219 446.691406 687.457031 453.710938 694.476562 C 460.734375 701.5 472.117188 701.5 479.140625 694.476562 C 486.160156 687.457031 486.160156 676.074219 479.140625 669.050781 C 472.117188 662.03125 460.734375 662.03125 453.710938 669.050781 Z M 453.710938 669.050781 " clip-rule="nonzero"/></clipPath><clipPath id="b5f237fac2"><path d="M 0 0 L 37 0 L 37 37 L 0 37 Z M 0 0 " clip-rule="nonzero"/></clipPath><clipPath id="72e28d7a81"><path d="M -7 18.765625 L 18.425781 -6.660156 L 43.851562 18.765625 L 18.425781 44.191406 Z M -7 18.765625 " clip-rule="nonzero"/></clipPath><clipPath id="f47fbc6b35"><path d="M 5.710938 6.050781 C -1.308594 13.074219 -1.308594 24.457031 5.710938 31.476562 C 12.734375 38.5 24.117188 38.5 31.140625 31.476562 C 38.160156 24.457031 38.160156 13.074219 31.140625 6.050781 C 24.117188 -0.96875 12.734375 -0.96875 5.710938 6.050781 Z M 5.710938 6.050781 " clip-rule="nonzero"/></clipPath><clipPath id="2a693b04c1"><rect x="0" width="37" y="0" height="37"/></clipPath><clipPath id="051b80c602"><path d="M 448 663 L 485 663 L 485 700 L 448 700 Z M 448 663 " clip-rule="nonzero"/></clipPath><clipPath id="4165255047"><path d="M 441 681.765625 L 466.445312 656.316406 L 491.894531 681.765625 L 466.445312 707.210938 Z M 441 681.765625 " clip-rule="nonzero"/></clipPath><clipPath id="26de712e10"><path d="M 441 681.765625 L 466.425781 656.339844 L 491.851562 681.765625 L 466.425781 707.191406 Z M 441 681.765625 " clip-rule="nonzero"/></clipPath><clipPath id="a2d8f83ffd"><path d="M 453.710938 669.050781 C 446.691406 676.074219 446.691406 687.457031 453.710938 694.476562 C 460.734375 701.5 472.117188 701.5 479.136719 694.476562 C 486.160156 687.457031 486.160156 676.074219 479.136719 669.050781 C 472.117188 662.03125 460.734375 662.03125 453.710938 669.050781 Z M 453.710938 669.050781 " clip-rule="nonzero"/></clipPath><clipPath id="80cb031c02"><path d="M 514 598 L 550 598 L 550 635 L 514 635 Z M 514 598 " clip-rule="nonzero"/></clipPath><clipPath id="227b4507a5"><path d="M 506.570312 616.191406 L 532 590.765625 L 557.425781 616.191406 L 532 641.621094 Z M 506.570312 616.191406 " clip-rule="nonzero"/></clipPath><clipPath id="b65c2d578c"><path d="M 519.285156 603.480469 C 512.265625 610.5 512.265625 621.882812 519.285156 628.90625 C 526.304688 635.925781 537.691406 635.925781 544.710938 628.90625 C 551.734375 621.882812 551.734375 610.5 544.710938 603.480469 C 537.691406 596.457031 526.304688 596.457031 519.285156 603.480469 Z M 519.285156 603.480469 " clip-rule="nonzero"/></clipPath><clipPath id="77f46ac497"><path d="M 0 0 L 36 0 L 36 37 L 0 37 Z M 0 0 " clip-rule="nonzero"/></clipPath><clipPath id="f34dd0b410"><path d="M -7.429688 18.191406 L 18 -7.234375 L 43.425781 18.191406 L 18 43.621094 Z M -7.429688 18.191406 " clip-rule="nonzero"/></clipPath><clipPath id="589f4d3bca"><path d="M 5.285156 5.480469 C -1.734375 12.5 -1.734375 23.882812 5.285156 30.90625 C 12.304688 37.925781 23.691406 37.925781 30.710938 30.90625 C 37.734375 23.882812 37.734375 12.5 30.710938 5.480469 C 23.691406 -1.542969 12.304688 -1.542969 5.285156 5.480469 Z M 5.285156 5.480469 " clip-rule="nonzero"/></clipPath><clipPath id="3ba62154d6"><rect x="0" width="36" y="0" height="37"/></clipPath><clipPath id="37b654dacc"><path d="M 514 598 L 550 598 L 550 635 L 514 635 Z M 514 598 " clip-rule="nonzero"/></clipPath><clipPath id="f54d8e6fc1"><path d="M 506.570312 616.191406 L 532.019531 590.746094 L 557.464844 616.191406 L 532.019531 641.640625 Z M 506.570312 616.191406 " clip-rule="nonzero"/></clipPath><clipPath id="cd5c4b73db"><path d="M 506.570312 616.191406 L 531.996094 590.765625 L 557.425781 616.191406 L 531.996094 641.617188 Z M 506.570312 616.191406 " clip-rule="nonzero"/></clipPath><clipPath id="b49f999447"><path d="M 519.285156 603.480469 C 512.265625 610.5 512.265625 621.882812 519.285156 628.90625 C 526.304688 635.925781 537.691406 635.925781 544.710938 628.90625 C 551.730469 621.882812 551.730469 610.5 544.710938 603.480469 C 537.691406 596.457031 526.304688 596.457031 519.285156 603.480469 Z M 519.285156 603.480469 " clip-rule="nonzero"/></clipPath><clipPath id="0f34108af1"><path d="M 383 598 L 420 598 L 420 635 L 383 635 Z M 383 598 " clip-rule="nonzero"/></clipPath><clipPath id="6f17917774"><path d="M 375.820312 616.585938 L 401.246094 591.160156 L 426.675781 616.585938 L 401.246094 642.015625 Z M 375.820312 616.585938 " clip-rule="nonzero"/></clipPath><clipPath id="fdeea38d9b"><path d="M 388.535156 603.875 C 381.511719 610.894531 381.511719 622.28125 388.535156 629.300781 C 395.554688 636.320312 406.941406 636.320312 413.960938 629.300781 C 420.980469 622.28125 420.980469 610.894531 413.960938 603.875 C 406.941406 596.851562 395.554688 596.851562 388.535156 603.875 Z M 388.535156 603.875 " clip-rule="nonzero"/></clipPath><clipPath id="63680c96e1"><path d="M 0 0 L 37 0 L 37 37 L 0 37 Z M 0 0 " clip-rule="nonzero"/></clipPath><clipPath id="56906469db"><path d="M -7.179688 18.585938 L 18.246094 -6.839844 L 43.675781 18.585938 L 18.246094 44.015625 Z M -7.179688 18.585938 " clip-rule="nonzero"/></clipPath><clipPath id="92e90fcdc9"><path d="M 5.535156 5.875 C -1.488281 12.894531 -1.488281 24.28125 5.535156 31.300781 C 12.554688 38.320312 23.941406 38.320312 30.960938 31.300781 C 37.980469 24.28125 37.980469 12.894531 30.960938 5.875 C 23.941406 -1.148438 12.554688 -1.148438 5.535156 5.875 Z M 5.535156 5.875 " clip-rule="nonzero"/></clipPath><clipPath id="0dada6fa4e"><rect x="0" width="37" y="0" height="37"/></clipPath><clipPath id="6b73e2afca"><path d="M 383 598 L 420 598 L 420 635 L 383 635 Z M 383 598 " clip-rule="nonzero"/></clipPath><clipPath id="ffa7f12268"><path d="M 375.820312 616.585938 L 401.269531 591.140625 L 426.714844 616.585938 L 401.269531 642.035156 Z M 375.820312 616.585938 " clip-rule="nonzero"/></clipPath><clipPath id="c0939a36e4"><path d="M 375.820312 616.585938 L 401.246094 591.160156 L 426.671875 616.585938 L 401.246094 642.011719 Z M 375.820312 616.585938 " clip-rule="nonzero"/></clipPath><clipPath id="751e62591d"><path d="M 388.535156 603.875 C 381.511719 610.894531 381.511719 622.277344 388.535156 629.300781 C 395.554688 636.320312 406.9375 636.320312 413.960938 629.300781 C 420.980469 622.277344 420.980469 610.894531 413.960938 603.875 C 406.9375 596.851562 395.554688 596.851562 388.535156 603.875 Z M 388.535156 603.875 " clip-rule="nonzero"/></clipPath><clipPath id="71559652d4"><path d="M 513 729 L 550 729 L 550 766 L 513 766 Z M 513 729 " clip-rule="nonzero"/></clipPath><clipPath id="5c197a5604"><path d="M 506.316406 747.082031 L 531.742188 721.65625 L 557.171875 747.082031 L 531.742188 772.511719 Z M 506.316406 747.082031 " clip-rule="nonzero"/></clipPath><clipPath id="863239f253"><path d="M 519.03125 734.371094 C 512.007812 741.390625 512.007812 752.777344 519.03125 759.796875 C 526.050781 766.816406 537.4375 766.816406 544.457031 759.796875 C 551.476562 752.777344 551.476562 741.390625 544.457031 734.371094 C 537.4375 727.347656 526.050781 727.347656 519.03125 734.371094 Z M 519.03125 734.371094 " clip-rule="nonzero"/></clipPath><clipPath id="f90bde622d"><path d="M 0 0 L 37 0 L 37 37 L 0 37 Z M 0 0 " clip-rule="nonzero"/></clipPath><clipPath id="22e5e26d4e"><path d="M -6.683594 18.082031 L 18.742188 -7.34375 L 44.171875 18.082031 L 18.742188 43.511719 Z M -6.683594 18.082031 " clip-rule="nonzero"/></clipPath><clipPath id="e21a94c694"><path d="M 6.03125 5.371094 C -0.992188 12.390625 -0.992188 23.777344 6.03125 30.796875 C 13.050781 37.816406 24.4375 37.816406 31.457031 30.796875 C 38.476562 23.777344 38.476562 12.390625 31.457031 5.371094 C 24.4375 -1.652344 13.050781 -1.652344 6.03125 5.371094 Z M 6.03125 5.371094 " clip-rule="nonzero"/></clipPath><clipPath id="bf1ad6eb00"><rect x="0" width="37" y="0" height="37"/></clipPath><clipPath id="5b2db1e95e"><path d="M 513 729 L 550 729 L 550 766 L 513 766 Z M 513 729 " clip-rule="nonzero"/></clipPath><clipPath id="54d2a0d45a"><path d="M 506.316406 747.082031 L 531.765625 721.636719 L 557.210938 747.082031 L 531.765625 772.53125 Z M 506.316406 747.082031 " clip-rule="nonzero"/></clipPath><clipPath id="4afa4b6d2b"><path d="M 506.316406 747.082031 L 531.742188 721.65625 L 557.167969 747.082031 L 531.742188 772.507812 Z M 506.316406 747.082031 " clip-rule="nonzero"/></clipPath><clipPath id="e9ed0e73ba"><path d="M 519.03125 734.371094 C 512.007812 741.390625 512.007812 752.773438 519.03125 759.796875 C 526.050781 766.816406 537.4375 766.816406 544.457031 759.796875 C 551.476562 752.773438 551.476562 741.390625 544.457031 734.371094 C 537.4375 727.347656 526.050781 727.347656 519.03125 734.371094 Z M 519.03125 734.371094 " clip-rule="nonzero"/></clipPath><clipPath id="952f9b29e5"><path d="M 678.480469 723.152344 L 1176.019531 723.152344 L 1176.019531 867.222656 L 678.480469 867.222656 Z M 678.480469 723.152344 " clip-rule="nonzero"/></clipPath><clipPath id="167d728838"><path d="M 0.480469 0.152344 L 498 0.152344 L 498 144.222656 L 0.480469 144.222656 Z M 0.480469 0.152344 " clip-rule="nonzero"/></clipPath><clipPath id="65dabc7fe2"><rect x="0" width="499" y="0" height="145"/></clipPath><clipPath id="4313d62a1b"><rect x="0" width="505" y="0" height="324"/></clipPath><clipPath id="a11821f899"><rect x="0" width="508" y="0" height="223"/></clipPath><clipPath id="c5ea135779"><rect x="0" width="1406" y="0" height="1439"/></clipPath><clipPath id="d70998fc97"><path d="M 1012.671875 520.636719 L 1085.421875 520.636719 L 1085.421875 593.386719 L 1012.671875 593.386719 Z M 1012.671875 520.636719 " clip-rule="nonzero"/></clipPath></defs><g transform="matrix(1, 0, 0, 1, 0, 37)"><g clip-path="url(#c5ea135779)"><g clip-path="url(#3705dce3de)"><g clip-path="url(#6d78d40e00)"><g clip-path="url(#96b42ddb66)"><g transform="matrix(1, 0, 0, 1, 287, 502)"><g clip-path="url(#b16b3e3cdb)"><g clip-path="url(#e42fb42fde)"><g clip-path="url(#f703682984)"><g clip-path="url(#1a0a1cf44e)"><path fill="#ffffff" d="M 228.054688 428.496094 L -68.972656 131.46875 L 131.128906 -68.632812 L 428.15625 228.394531 Z M 228.054688 428.496094 " fill-opacity="1" fill-rule="nonzero"/></g></g></g></g></g></g></g></g><g clip-path="url(#7cf5225d6d)"><g clip-path="url(#ffce183772)"><g clip-path="url(#f01fbcc21c)"><g clip-path="url(#6dacb73bb0)"><path stroke-linecap="butt" transform="matrix(-0.270716, -0.270716, 0.270716, -0.270716, 515.053237, 930.496729)" fill="none" stroke-linejoin="miter" d="M 548.956047 -0.00336298 C 245.773678 0.0038517 -0.00150637 165.465253 -0.00150637 369.582892 C -0.00150637 573.686103 245.773678 739.161933 548.956047 739.154718 C 852.131201 739.154718 1097.906386 573.693318 1097.906386 369.575678 C 1097.906386 165.472467 852.131201 -0.00336298 548.956047 -0.00336298 Z M 548.956047 -0.00336298 " stroke="#06464f" stroke-width="152.801529" stroke-opacity="1" stroke-miterlimit="4"/></g></g></g></g><g clip-path="url(#236f37a6eb)"><g clip-path="url(#ef3eba2f92)"><g clip-path="url(#10ea721a25)"><g transform="matrix(1, 0, 0, 1, 266, 481)"><g clip-path="url(#7ba3ff80fb)"><g clip-path="url(#5bb8bf11a7)"><g clip-path="url(#d50c38f461)"><g clip-path="url(#f94cbc8084)"><path fill="#ffffff" d="M 464.789062 98.96875 L 98.691406 465.070312 L -63.738281 302.640625 L 302.359375 -63.457031 Z M 464.789062 98.96875 " fill-opacity="1" fill-rule="nonzero"/></g></g></g></g></g></g></g></g><g clip-path="url(#d0f5b6d3fd)"><g clip-path="url(#81b692aa21)"><g clip-path="url(#ab474c6ce9)"><g clip-path="url(#3b3fbbc646)"><path stroke-linecap="butt" transform="matrix(-0.270715, 0.270715, -0.270715, -0.270715, 730.79013, 579.970543)" fill="none" stroke-linejoin="miter" d="M 676.280899 -0.00193097 C 302.777038 -0.00193097 -0.00133896 134.313723 0.00587572 299.998795 C -0.00133896 465.683867 302.777038 599.99952 676.280899 599.99952 C 1049.78476 599.99952 1352.563137 465.683867 1352.563137 300.006009 C 1352.563137 134.313723 1049.78476 -0.00193097 676.280899 -0.00193097 Z M 676.280899 -0.00193097 " stroke="#06464f" stroke-width="152.801529" stroke-opacity="1" stroke-miterlimit="4"/></g></g></g></g><g clip-path="url(#7a37fbf268)"><g clip-path="url(#a8c8ed1837)"><g clip-path="url(#44d43e1e1c)"><path stroke-linecap="butt" transform="matrix(0.270716, -0.270716, 0.270716, 0.270716, 326.078969, 681.765238)" fill="none" stroke-linejoin="miter" d="M 259.206639 -0.000844713 L 518.422767 259.215283 L 259.213854 518.424196 L -0.00227392 259.208068 Z M 259.206639 -0.000844713 " stroke="#06464f" stroke-width="43.09787" stroke-opacity="1" stroke-miterlimit="4"/></g></g></g><path stroke-linecap="butt" transform="matrix(0.270716, -0.270716, 0.270716, 0.270716, 404.81047, 737.695409)" fill="none" stroke-linejoin="miter" d="M -0.00328751 10.500925 L 434.204829 10.500925 " stroke="#06464f" stroke-width="21" stroke-opacity="1" stroke-miterlimit="4"/><g clip-path="url(#6152ea2507)"><g clip-path="url(#1130fabbd5)"><g clip-path="url(#57acf093a6)"><g transform="matrix(1, 0, 0, 1, 382, 729)"><g clip-path="url(#d44629adfa)"><g clip-path="url(#efab510fe4)"><g clip-path="url(#c05f3d4485)"><g clip-path="url(#f34c8e269a)"><path fill="#f7970e" d="M -6.574219 18.335938 L 18.851562 -7.089844 L 44.28125 18.335938 L 18.851562 43.765625 Z M -6.574219 18.335938 " fill-opacity="1" fill-rule="nonzero"/></g></g></g></g></g></g></g></g><g clip-path="url(#28e0675cbd)"><g clip-path="url(#c1625c673c)"><g clip-path="url(#5674478aa3)"><g clip-path="url(#d75eccfd66)"><path stroke-linecap="butt" transform="matrix(0.270716, -0.270716, 0.270716, 0.270716, 375.426827, 747.33772)" fill="none" stroke-linejoin="miter" d="M 46.961694 0.00199092 C 21.024931 -0.00522376 -0.0058524 21.02556 0.00136228 46.962323 C 0.00136228 72.891872 21.024931 93.915441 46.961694 93.922655 C 72.891243 93.922655 93.922027 72.891872 93.922027 46.962323 C 93.922027 21.018345 72.898458 -0.00522376 46.961694 0.00199092 Z M 46.961694 0.00199092 " stroke="#06464f" stroke-width="19.589941" stroke-opacity="1" stroke-miterlimit="4"/></g></g></g></g><g clip-path="url(#b83cad68ec)"><g clip-path="url(#3f5f0bf7f8)"><g clip-path="url(#542018b018)"><g transform="matrix(1, 0, 0, 1, 448, 663)"><g clip-path="url(#2a693b04c1)"><g clip-path="url(#b5f237fac2)"><g clip-path="url(#72e28d7a81)"><g clip-path="url(#f47fbc6b35)"><path fill="#f7970e" d="M -7 18.765625 L 18.425781 -6.660156 L 43.851562 18.765625 L 18.425781 44.191406 Z M -7 18.765625 " fill-opacity="1" fill-rule="nonzero"/></g></g></g></g></g></g></g></g><g clip-path="url(#051b80c602)"><g clip-path="url(#4165255047)"><g clip-path="url(#26de712e10)"><g clip-path="url(#a2d8f83ffd)"><path stroke-linecap="butt" transform="matrix(0.270716, -0.270716, 0.270716, 0.270716, 440.999323, 681.765238)" fill="none" stroke-linejoin="miter" d="M 46.960867 -0.00525036 C 21.024104 0.00196432 0.00053511 21.025533 0.00053511 46.955082 C 0.00053511 72.89906 21.024104 93.922629 46.960867 93.915414 C 72.897631 93.922629 93.921199 72.89906 93.921199 46.955082 C 93.921199 21.025533 72.897631 0.00196432 46.960867 -0.00525036 Z M 46.960867 -0.00525036 " stroke="#06464f" stroke-width="19.589941" stroke-opacity="1" stroke-miterlimit="4"/></g></g></g></g><g clip-path="url(#80cb031c02)"><g clip-path="url(#227b4507a5)"><g clip-path="url(#b65c2d578c)"><g transform="matrix(1, 0, 0, 1, 514, 598)"><g clip-path="url(#3ba62154d6)"><g clip-path="url(#77f46ac497)"><g clip-path="url(#f34dd0b410)"><g clip-path="url(#589f4d3bca)"><path fill="#f7970e" d="M -7.429688 18.191406 L 18 -7.234375 L 43.425781 18.191406 L 18 43.617188 Z M -7.429688 18.191406 " fill-opacity="1" fill-rule="nonzero"/></g></g></g></g></g></g></g></g><g clip-path="url(#37b654dacc)"><g clip-path="url(#f54d8e6fc1)"><g clip-path="url(#cd5c4b73db)"><g clip-path="url(#b49f999447)"><path stroke-linecap="butt" transform="matrix(0.270716, -0.270716, 0.270716, 0.270716, 506.571854, 616.192732)" fill="none" stroke-linejoin="miter" d="M 46.959934 0.00191999 C 21.030385 0.00191999 0.00681623 21.025489 -0.000398442 46.962252 C -0.000398442 72.891801 21.030385 93.922584 46.959934 93.922584 C 72.896697 93.91537 93.920266 72.891801 93.920266 46.962252 C 93.927481 21.025489 72.896697 -0.00529468 46.959934 0.00191999 Z M 46.959934 0.00191999 " stroke="#06464f" stroke-width="19.589941" stroke-opacity="1" stroke-miterlimit="4"/></g></g></g></g><g clip-path="url(#0f34108af1)"><g clip-path="url(#6f17917774)"><g clip-path="url(#fdeea38d9b)"><g transform="matrix(1, 0, 0, 1, 383, 598)"><g clip-path="url(#0dada6fa4e)"><g clip-path="url(#63680c96e1)"><g clip-path="url(#56906469db)"><g clip-path="url(#92e90fcdc9)"><path fill="#f7970e" d="M -7.179688 18.585938 L 18.246094 -6.839844 L 43.675781 18.585938 L 18.246094 44.015625 Z M -7.179688 18.585938 " fill-opacity="1" fill-rule="nonzero"/></g></g></g></g></g></g></g></g><g clip-path="url(#6b73e2afca)"><g clip-path="url(#ffa7f12268)"><g clip-path="url(#c0939a36e4)"><g clip-path="url(#751e62591d)"><path stroke-linecap="butt" transform="matrix(0.270716, -0.270716, 0.270716, 0.270716, 375.821485, 616.587436)" fill="none" stroke-linejoin="miter" d="M 46.960934 0.00228204 C 21.02417 -0.00493264 0.0006016 21.018636 0.0006016 46.962614 C 0.0006016 72.892163 21.02417 93.915732 46.960934 93.922946 C 72.897697 93.915732 93.921266 72.892163 93.921266 46.962614 C 93.921266 21.018636 72.897697 -0.00493264 46.960934 0.00228204 Z M 46.960934 0.00228204 " stroke="#ffffff" stroke-width="19.589941" stroke-opacity="1" stroke-miterlimit="4"/></g></g></g></g><g clip-path="url(#71559652d4)"><g clip-path="url(#5c197a5604)"><g clip-path="url(#863239f253)"><g transform="matrix(1, 0, 0, 1, 513, 729)"><g clip-path="url(#bf1ad6eb00)"><g clip-path="url(#f90bde622d)"><g clip-path="url(#22e5e26d4e)"><g clip-path="url(#e21a94c694)"><path fill="#f7970e" d="M -6.683594 18.082031 L 18.742188 -7.34375 L 44.171875 18.082031 L 18.742188 43.511719 Z M -6.683594 18.082031 " fill-opacity="1" fill-rule="nonzero"/></g></g></g></g></g></g></g></g><g clip-path="url(#5b2db1e95e)"><g clip-path="url(#54d2a0d45a)"><g clip-path="url(#4afa4b6d2b)"><g clip-path="url(#e9ed0e73ba)"><path stroke-linecap="butt" transform="matrix(0.270716, -0.270716, 0.270716, 0.270716, 506.317598, 747.083488)" fill="none" stroke-linejoin="miter" d="M 46.960823 0.00232263 C 21.024059 -0.00489204 0.000490783 21.018677 0.000490783 46.962655 C 0.000490783 72.892204 21.024059 93.915772 46.960823 93.922987 C 72.897587 93.915772 93.921155 72.892204 93.921155 46.962655 C 93.921155 21.018677 72.897587 -0.00489204 46.960823 0.00232263 Z M 46.960823 0.00232263 " stroke="#ffffff" stroke-width="19.589941" stroke-opacity="1" stroke-miterlimit="4"/></g></g></g></g><g clip-path="url(#952f9b29e5)"><g transform="matrix(1, 0, 0, 1, 678, 723)"><g clip-path="url(#65dabc7fe2)"><g clip-path="url(#167d728838)"><path fill="#f7970e" d="M 0.480469 0.152344 L 497.960938 0.152344 L 497.960938 144.222656 L 0.480469 144.222656 Z M 0.480469 0.152344 " fill-opacity="1" fill-rule="nonzero"/></g></g></g></g><g transform="matrix(1, 0, 0, 1, 672, 493)"><g clip-path="url(#4313d62a1b)"><g fill="#06464f" fill-opacity="1"><g transform="translate(1.111675, 216.129485)"><g><path d="M 41.4375 -144.59375 L 74.765625 -144.59375 C 96.835938 -144.59375 107.875 -135.28125 107.875 -116.65625 L 107.875 -27.921875 C 107.875 -9.304688 96.835938 0 74.765625 0 L 41.4375 0 C 19.363281 0 8.328125 -9.304688 8.328125 -27.921875 L 8.328125 -116.65625 C 8.328125 -135.28125 19.363281 -144.59375 41.4375 -144.59375 Z M 68.46875 -33.109375 L 68.46875 -111.484375 C 68.46875 -114.785156 66.59375 -116.4375 62.84375 -116.4375 L 53.375 -116.4375 C 49.625 -116.4375 47.75 -114.785156 47.75 -111.484375 L 47.75 -33.109375 C 47.75 -29.804688 49.625 -28.15625 53.375 -28.15625 L 62.84375 -28.15625 C 66.59375 -28.15625 68.46875 -29.804688 68.46875 -33.109375 Z M 68.46875 -33.109375 "/></g></g></g><g fill="#06464f" fill-opacity="1"><g transform="translate(117.322577, 216.129485)"><g><path d="M 48.421875 -51.34375 L 48.421875 0 L 9.015625 0 L 9.015625 -144.59375 L 75.90625 -144.59375 C 97.96875 -144.59375 109 -135.28125 109 -116.65625 L 109 -79.28125 C 109 -65.007812 102.546875 -56.222656 89.640625 -52.921875 L 116.21875 0 L 73.875 0 L 50.90625 -51.34375 Z M 63.96875 -116.4375 L 48.421875 -116.4375 L 48.421875 -78.15625 L 63.96875 -78.15625 C 67.71875 -78.15625 69.59375 -79.804688 69.59375 -83.109375 L 69.59375 -111.484375 C 69.59375 -114.785156 67.71875 -116.4375 63.96875 -116.4375 Z M 63.96875 -116.4375 "/></g></g></g><g fill="#06464f" fill-opacity="1"><g transform="translate(233.083052, 216.129485)"><g><path d="M 69.59375 -90.3125 L 69.59375 -113.734375 C 69.59375 -117.035156 67.71875 -118.6875 63.96875 -118.6875 L 47.75 -118.6875 L 47.75 -85.359375 L 63.96875 -85.359375 C 67.71875 -85.359375 69.59375 -87.007812 69.59375 -90.3125 Z M 69.59375 -30.859375 L 69.59375 -54.5 C 69.59375 -57.800781 67.71875 -59.453125 63.96875 -59.453125 L 47.75 -59.453125 L 47.75 -25.90625 L 63.96875 -25.90625 C 67.71875 -25.90625 69.59375 -27.554688 69.59375 -30.859375 Z M 9.015625 -144.59375 L 75.21875 -144.59375 C 97.289062 -144.59375 108.328125 -135.28125 108.328125 -116.65625 L 108.328125 -98.203125 C 108.328125 -85.128906 104.722656 -76.644531 97.515625 -72.75 C 101.722656 -70.945312 104.578125 -68.203125 106.078125 -64.515625 C 107.578125 -60.835938 108.328125 -55.847656 108.328125 -49.546875 L 108.328125 -27.921875 C 108.328125 -9.304688 97.289062 0 75.21875 0 L 9.015625 0 Z M 9.015625 -144.59375 "/></g></g></g><g fill="#06464f" fill-opacity="1"><g transform="translate(349.293954, 216.129485)"><g><path d="M 9.015625 -144.59375 L 48.421875 -144.59375 L 48.421875 0 L 9.015625 0 Z M 9.015625 -144.59375 "/></g></g></g><g fill="#06464f" fill-opacity="1"><g transform="translate(406.723763, 216.129485)"><g><path d="M 96.171875 -144.59375 L 96.171875 -116.4375 L 68.234375 -116.4375 L 68.234375 0 L 28.828125 0 L 28.828125 -116.4375 L 1.125 -116.4375 L 1.125 -144.59375 Z M 96.171875 -144.59375 "/></g></g></g></g></g><g transform="matrix(1, 0, 0, 1, 706, 692)"><g clip-path="url(#a11821f899)"><g fill="#ffffff" fill-opacity="1"><g transform="translate(0.466398, 147.830765)"><g><path d="M 36.09375 -15.859375 L 36.09375 -39.671875 C 36.09375 -41.535156 35.804688 -42.75 35.234375 -43.3125 C 34.660156 -43.882812 33.441406 -44.171875 31.578125 -44.171875 L 20.0625 -44.171875 C 10.625 -44.171875 5.90625 -48.785156 5.90625 -58.015625 L 5.90625 -83.6875 C 5.90625 -92.8125 10.726562 -97.375 20.375 -97.375 L 35.625 -97.375 C 45.269531 -97.375 50.09375 -92.8125 50.09375 -83.6875 L 50.09375 -69.375 L 35.9375 -69.375 L 35.9375 -81.5 C 35.9375 -83.375 35.625 -84.59375 35 -85.15625 C 34.375 -85.726562 33.128906 -86.015625 31.265625 -86.015625 L 24.734375 -86.015625 C 22.867188 -86.015625 21.625 -85.726562 21 -85.15625 C 20.375 -84.59375 20.0625 -83.375 20.0625 -81.5 L 20.0625 -59.890625 C 20.0625 -58.015625 20.375 -56.789062 21 -56.21875 C 21.625 -55.65625 22.867188 -55.375 24.734375 -55.375 L 36.09375 -55.375 C 45.625 -55.375 50.390625 -50.8125 50.390625 -41.6875 L 50.390625 -13.6875 C 50.390625 -4.5625 45.519531 0 35.78125 0 L 20.6875 0 C 11.039062 0 6.21875 -4.5625 6.21875 -13.6875 L 6.21875 -28 L 20.375 -28 L 20.375 -15.859375 C 20.375 -13.992188 20.6875 -12.773438 21.3125 -12.203125 C 21.9375 -11.640625 23.179688 -11.359375 25.046875 -11.359375 L 31.578125 -11.359375 C 33.441406 -11.359375 34.660156 -11.640625 35.234375 -12.203125 C 35.804688 -12.773438 36.09375 -13.992188 36.09375 -15.859375 Z M 36.09375 -15.859375 "/></g></g></g><g fill="#ffffff" fill-opacity="1"><g transform="translate(127.240729, 147.830765)"><g><path d="M 35.15625 -75.90625 L 49.15625 -75.90625 L 49.15625 0 L 35.15625 0 L 35.15625 -6.0625 C 33.800781 -2.019531 30.585938 0 25.515625 0 L 19.90625 0 C 10.570312 0 5.90625 -4.5625 5.90625 -13.6875 L 5.90625 -62.0625 C 5.90625 -71.289062 10.570312 -75.90625 19.90625 -75.90625 L 25.515625 -75.90625 C 30.585938 -75.90625 33.800781 -73.882812 35.15625 -69.84375 Z M 24.578125 -11.359375 L 30.015625 -11.359375 C 31.890625 -11.359375 33.210938 -11.769531 33.984375 -12.59375 C 34.765625 -13.425781 35.15625 -14.828125 35.15625 -16.796875 L 35.15625 -59.109375 C 35.15625 -61.078125 34.765625 -62.472656 33.984375 -63.296875 C 33.210938 -64.128906 31.890625 -64.546875 30.015625 -64.546875 L 24.578125 -64.546875 C 22.710938 -64.546875 21.46875 -64.257812 20.84375 -63.6875 C 20.21875 -63.125 19.90625 -61.910156 19.90625 -60.046875 L 19.90625 -15.859375 C 19.90625 -13.992188 20.21875 -12.773438 20.84375 -12.203125 C 21.46875 -11.640625 22.710938 -11.359375 24.578125 -11.359375 Z M 24.578125 -11.359375 "/></g></g></g><g fill="#ffffff" fill-opacity="1"><g transform="translate(253.859528, 147.830765)"><g><path d="M 35.15625 -75.90625 L 49.15625 -75.90625 L 49.15625 0 L 35.15625 0 L 35.15625 -6.0625 C 33.800781 -2.019531 30.585938 0 25.515625 0 L 19.90625 0 C 10.570312 0 5.90625 -4.5625 5.90625 -13.6875 L 5.90625 -62.0625 C 5.90625 -71.289062 10.570312 -75.90625 19.90625 -75.90625 L 25.515625 -75.90625 C 30.585938 -75.90625 33.800781 -73.882812 35.15625 -69.84375 Z M 24.578125 -11.359375 L 30.015625 -11.359375 C 31.890625 -11.359375 33.210938 -11.769531 33.984375 -12.59375 C 34.765625 -13.425781 35.15625 -14.828125 35.15625 -16.796875 L 35.15625 -59.109375 C 35.15625 -61.078125 34.765625 -62.472656 33.984375 -63.296875 C 33.210938 -64.128906 31.890625 -64.546875 30.015625 -64.546875 L 24.578125 -64.546875 C 22.710938 -64.546875 21.46875 -64.257812 20.84375 -63.6875 C 20.21875 -63.125 19.90625 -61.910156 19.90625 -60.046875 L 19.90625 -15.859375 C 19.90625 -13.992188 20.21875 -12.773438 20.84375 -12.203125 C 21.46875 -11.640625 22.710938 -11.359375 24.578125 -11.359375 Z M 24.578125 -11.359375 "/></g></g></g><g fill="#ffffff" fill-opacity="1"><g transform="translate(380.478307, 147.830765)"><g><path d="M 36.09375 -15.859375 L 36.09375 -39.671875 C 36.09375 -41.535156 35.804688 -42.75 35.234375 -43.3125 C 34.660156 -43.882812 33.441406 -44.171875 31.578125 -44.171875 L 20.0625 -44.171875 C 10.625 -44.171875 5.90625 -48.785156 5.90625 -58.015625 L 5.90625 -83.6875 C 5.90625 -92.8125 10.726562 -97.375 20.375 -97.375 L 35.625 -97.375 C 45.269531 -97.375 50.09375 -92.8125 50.09375 -83.6875 L 50.09375 -69.375 L 35.9375 -69.375 L 35.9375 -81.5 C 35.9375 -83.375 35.625 -84.59375 35 -85.15625 C 34.375 -85.726562 33.128906 -86.015625 31.265625 -86.015625 L 24.734375 -86.015625 C 22.867188 -86.015625 21.625 -85.726562 21 -85.15625 C 20.375 -84.59375 20.0625 -83.375 20.0625 -81.5 L 20.0625 -59.890625 C 20.0625 -58.015625 20.375 -56.789062 21 -56.21875 C 21.625 -55.65625 22.867188 -55.375 24.734375 -55.375 L 36.09375 -55.375 C 45.625 -55.375 50.390625 -50.8125 50.390625 -41.6875 L 50.390625 -13.6875 C 50.390625 -4.5625 45.519531 0 35.78125 0 L 20.6875 0 C 11.039062 0 6.21875 -4.5625 6.21875 -13.6875 L 6.21875 -28 L 20.375 -28 L 20.375 -15.859375 C 20.375 -13.992188 20.6875 -12.773438 21.3125 -12.203125 C 21.9375 -11.640625 23.179688 -11.359375 25.046875 -11.359375 L 31.578125 -11.359375 C 33.441406 -11.359375 34.660156 -11.640625 35.234375 -12.203125 C 35.804688 -12.773438 36.09375 -13.992188 36.09375 -15.859375 Z M 36.09375 -15.859375 "/></g></g></g></g></g></g></g><g clip-path="url(#d70998fc97)"><path fill="#06464f" d="M 1085.140625 556.871094 C 1085.140625 558.058594 1085.082031 559.242188 1084.964844 560.421875 C 1084.847656 561.605469 1084.675781 562.777344 1084.445312 563.941406 C 1084.210938 565.105469 1083.925781 566.253906 1083.582031 567.390625 C 1083.234375 568.527344 1082.835938 569.640625 1082.382812 570.738281 C 1081.929688 571.835938 1081.421875 572.90625 1080.863281 573.953125 C 1080.300781 575 1079.691406 576.015625 1079.035156 577.003906 C 1078.375 577.988281 1077.667969 578.941406 1076.914062 579.859375 C 1076.164062 580.777344 1075.367188 581.652344 1074.527344 582.492188 C 1073.6875 583.332031 1072.808594 584.128906 1071.894531 584.882812 C 1070.976562 585.632812 1070.023438 586.339844 1069.035156 587 C 1068.050781 587.660156 1067.035156 588.269531 1065.988281 588.828125 C 1064.941406 589.386719 1063.867188 589.894531 1062.773438 590.347656 C 1061.675781 590.800781 1060.558594 591.203125 1059.425781 591.546875 C 1058.289062 591.890625 1057.140625 592.179688 1055.976562 592.410156 C 1054.8125 592.640625 1053.636719 592.816406 1052.457031 592.933594 C 1051.277344 593.046875 1050.09375 593.105469 1048.90625 593.105469 C 1047.71875 593.105469 1046.535156 593.046875 1045.355469 592.933594 C 1044.171875 592.816406 1043 592.640625 1041.835938 592.410156 C 1040.671875 592.179688 1039.523438 591.890625 1038.386719 591.546875 C 1037.253906 591.203125 1036.136719 590.800781 1035.039062 590.347656 C 1033.941406 589.894531 1032.871094 589.386719 1031.824219 588.828125 C 1030.777344 588.269531 1029.761719 587.660156 1028.773438 587 C 1027.789062 586.339844 1026.835938 585.632812 1025.917969 584.882812 C 1025 584.128906 1024.125 583.332031 1023.285156 582.492188 C 1022.445312 581.652344 1021.648438 580.777344 1020.894531 579.859375 C 1020.144531 578.941406 1019.4375 577.988281 1018.777344 577.003906 C 1018.117188 576.015625 1017.507812 575 1016.949219 573.953125 C 1016.390625 572.90625 1015.882812 571.835938 1015.429688 570.738281 C 1014.976562 569.640625 1014.578125 568.527344 1014.230469 567.390625 C 1013.886719 566.253906 1013.597656 565.105469 1013.367188 563.941406 C 1013.136719 562.777344 1012.960938 561.605469 1012.847656 560.421875 C 1012.730469 559.242188 1012.671875 558.058594 1012.671875 556.871094 C 1012.671875 555.683594 1012.730469 554.5 1012.847656 553.320312 C 1012.960938 552.140625 1013.136719 550.964844 1013.367188 549.804688 C 1013.597656 548.640625 1013.886719 547.488281 1014.230469 546.355469 C 1014.578125 545.21875 1014.976562 544.101562 1015.429688 543.003906 C 1015.882812 541.910156 1016.390625 540.835938 1016.949219 539.792969 C 1017.507812 538.746094 1018.117188 537.726562 1018.777344 536.742188 C 1019.4375 535.753906 1020.144531 534.800781 1020.894531 533.886719 C 1021.648438 532.96875 1022.445312 532.089844 1023.285156 531.25 C 1024.125 530.410156 1025 529.613281 1025.917969 528.863281 C 1026.835938 528.109375 1027.789062 527.402344 1028.773438 526.742188 C 1029.761719 526.085938 1030.777344 525.476562 1031.824219 524.914062 C 1032.871094 524.355469 1033.941406 523.851562 1035.039062 523.394531 C 1036.136719 522.941406 1037.253906 522.542969 1038.386719 522.199219 C 1039.523438 521.851562 1040.671875 521.566406 1041.835938 521.332031 C 1043 521.101562 1044.171875 520.929688 1045.355469 520.8125 C 1046.535156 520.695312 1047.71875 520.636719 1048.90625 520.636719 C 1050.09375 520.636719 1051.277344 520.695312 1052.457031 520.8125 C 1053.636719 520.929688 1054.8125 521.101562 1055.976562 521.332031 C 1057.140625 521.566406 1058.289062 521.851562 1059.425781 522.199219 C 1060.558594 522.542969 1061.675781 522.941406 1062.773438 523.394531 C 1063.867188 523.851562 1064.941406 524.355469 1065.988281 524.914062 C 1067.035156 525.476562 1068.050781 526.085938 1069.035156 526.742188 C 1070.023438 527.402344 1070.976562 528.109375 1071.894531 528.863281 C 1072.808594 529.613281 1073.6875 530.410156 1074.527344 531.25 C 1075.367188 532.089844 1076.164062 532.96875 1076.914062 533.886719 C 1077.667969 534.800781 1078.375 535.753906 1079.035156 536.742188 C 1079.691406 537.726562 1080.300781 538.746094 1080.863281 539.792969 C 1081.421875 540.835938 1081.929688 541.910156 1082.382812 543.003906 C 1082.835938 544.101562 1083.234375 545.21875 1083.582031 546.355469 C 1083.925781 547.488281 1084.210938 548.640625 1084.445312 549.804688 C 1084.675781 550.964844 1084.847656 552.140625 1084.964844 553.320312 C 1085.082031 554.5 1085.140625 555.683594 1085.140625 556.871094 Z M 1085.140625 556.871094 " fill-opacity="1" fill-rule="nonzero"/></g><path fill="#ffffff" d="M 1048.195312 559.546875 C 1048.050781 559.546875 1047.890625 559.535156 1047.746094 559.519531 C 1047.390625 559.480469 1047.128906 559.164062 1047.152344 558.808594 C 1047.191406 558.453125 1047.507812 558.1875 1047.863281 558.214844 C 1049.816406 558.398438 1051.476562 556.859375 1051.476562 554.949219 C 1051.476562 553.144531 1050 551.667969 1048.195312 551.667969 C 1046.390625 551.667969 1044.914062 553.144531 1044.914062 554.949219 C 1044.914062 555.105469 1044.925781 555.265625 1044.953125 555.421875 C 1045.003906 555.777344 1044.753906 556.109375 1044.398438 556.160156 C 1044.042969 556.214844 1043.714844 555.960938 1043.660156 555.605469 C 1043.636719 555.382812 1043.609375 555.160156 1043.609375 554.949219 C 1043.609375 552.417969 1045.664062 550.351562 1048.207031 550.351562 C 1050.75 550.351562 1052.804688 552.40625 1052.804688 554.949219 C 1052.804688 557.492188 1050.722656 559.546875 1048.195312 559.546875 Z M 1048.195312 559.546875 " fill-opacity="1" fill-rule="nonzero"/><path fill="#ffffff" d="M 1051.554688 562.261719 C 1049.023438 562.261719 1046.957031 560.207031 1046.957031 557.664062 C 1046.957031 555.121094 1049.011719 553.0625 1051.554688 553.0625 C 1054.097656 553.0625 1056.152344 555.132812 1056.152344 557.664062 C 1056.152344 560.191406 1054.085938 562.261719 1051.554688 562.261719 Z M 1051.554688 554.382812 C 1049.75 554.382812 1048.273438 555.855469 1048.273438 557.664062 C 1048.273438 559.46875 1049.75 560.941406 1051.554688 560.941406 C 1053.359375 560.941406 1054.835938 559.46875 1054.835938 557.664062 C 1054.835938 555.855469 1053.371094 554.382812 1051.554688 554.382812 Z M 1051.554688 554.382812 " fill-opacity="1" fill-rule="nonzero"/><path fill="#ffffff" d="M 1046.296875 563.511719 C 1043.765625 563.511719 1041.699219 561.457031 1041.699219 558.914062 C 1041.699219 556.382812 1043.753906 554.316406 1046.296875 554.316406 C 1047.101562 554.316406 1047.890625 554.527344 1048.589844 554.921875 C 1048.90625 555.105469 1049.011719 555.5 1048.828125 555.816406 C 1048.640625 556.132812 1048.246094 556.238281 1047.929688 556.054688 C 1047.429688 555.765625 1046.863281 555.621094 1046.296875 555.621094 C 1044.492188 555.621094 1043.015625 557.097656 1043.015625 558.902344 C 1043.015625 560.707031 1044.492188 562.183594 1046.296875 562.183594 C 1047.402344 562.183594 1048.433594 561.628906 1049.039062 560.707031 C 1049.234375 560.402344 1049.644531 560.324219 1049.945312 560.523438 C 1050.25 560.71875 1050.328125 561.128906 1050.132812 561.429688 C 1049.289062 562.734375 1047.851562 563.511719 1046.296875 563.511719 Z M 1046.296875 563.511719 " fill-opacity="1" fill-rule="nonzero"/><path fill="#ffffff" d="M 1048.933594 577.03125 C 1045.980469 577.03125 1043.242188 574.882812 1041.210938 570.96875 C 1039.246094 567.203125 1038.167969 562.222656 1038.167969 556.9375 C 1038.167969 551.652344 1039.246094 546.671875 1041.210938 542.90625 C 1043.242188 539.003906 1045.992188 536.84375 1048.933594 536.84375 C 1051.871094 536.84375 1054.625 538.992188 1056.652344 542.90625 C 1058.617188 546.671875 1059.695312 551.652344 1059.695312 556.9375 C 1059.695312 562.222656 1058.617188 567.203125 1056.652344 570.96875 C 1054.625 574.882812 1051.882812 577.03125 1048.933594 577.03125 Z M 1048.933594 538.148438 C 1046.496094 538.148438 1044.164062 540.046875 1042.371094 543.5 C 1040.5 547.082031 1039.472656 551.851562 1039.472656 556.925781 C 1039.472656 561.996094 1040.5 566.765625 1042.371094 570.351562 C 1044.164062 573.804688 1046.496094 575.699219 1048.933594 575.699219 C 1051.371094 575.699219 1053.703125 573.804688 1055.492188 570.351562 C 1057.363281 566.765625 1058.394531 561.996094 1058.394531 556.925781 C 1058.394531 551.851562 1057.363281 547.082031 1055.492188 543.5 C 1053.703125 540.046875 1051.371094 538.148438 1048.933594 538.148438 Z M 1048.933594 538.148438 " fill-opacity="1" fill-rule="nonzero"/><path fill="#ffffff" d="M 1039.789062 570.679688 C 1035.820312 570.679688 1032.910156 569.390625 1031.527344 566.992188 C 1030.050781 564.433594 1030.539062 560.984375 1032.898438 557.265625 C 1035.175781 553.683594 1038.957031 550.257812 1043.542969 547.609375 C 1048.128906 544.960938 1052.992188 543.40625 1057.234375 543.222656 C 1061.621094 543.023438 1064.863281 544.328125 1066.339844 546.898438 C 1067.8125 549.46875 1067.328125 552.90625 1064.96875 556.621094 C 1062.6875 560.207031 1058.90625 563.632812 1054.320312 566.28125 C 1049.734375 568.929688 1044.875 570.484375 1040.632812 570.667969 C 1040.339844 570.667969 1040.066406 570.679688 1039.789062 570.679688 Z M 1058.0625 544.5 C 1057.8125 544.5 1057.550781 544.5 1057.273438 544.511719 C 1053.242188 544.683594 1048.589844 546.1875 1044.1875 548.730469 C 1039.789062 551.273438 1036.164062 554.554688 1033.992188 557.953125 C 1031.910156 561.21875 1031.433594 564.199219 1032.648438 566.320312 C 1033.871094 568.441406 1036.679688 569.507812 1040.550781 569.335938 C 1044.585938 569.164062 1049.234375 567.664062 1053.636719 565.121094 C 1058.035156 562.578125 1061.660156 559.296875 1063.835938 555.898438 C 1065.917969 552.628906 1066.390625 549.652344 1065.179688 547.53125 C 1064.058594 545.566406 1061.542969 544.5 1058.0625 544.5 Z M 1058.0625 544.5 " fill-opacity="1" fill-rule="nonzero"/><path fill="#ffffff" d="M 1058.0625 570.679688 C 1057.785156 570.679688 1057.511719 570.679688 1057.234375 570.667969 C 1052.992188 570.484375 1048.140625 568.914062 1043.542969 566.28125 C 1038.957031 563.632812 1035.175781 560.207031 1032.898438 556.621094 C 1030.539062 552.917969 1030.050781 549.46875 1031.527344 546.898438 C 1033.003906 544.339844 1036.242188 543.023438 1040.632812 543.222656 C 1044.875 543.40625 1049.722656 544.972656 1054.320312 547.609375 C 1058.917969 550.246094 1062.6875 553.683594 1064.96875 557.265625 C 1067.328125 560.96875 1067.8125 564.421875 1066.339844 566.992188 C 1064.941406 569.375 1062.03125 570.679688 1058.0625 570.679688 Z M 1039.789062 544.5 C 1036.308594 544.5 1033.804688 545.566406 1032.660156 547.542969 C 1031.433594 549.664062 1031.910156 552.628906 1034.003906 555.910156 C 1036.179688 559.308594 1039.789062 562.589844 1044.203125 565.132812 C 1048.601562 567.675781 1053.253906 569.179688 1057.285156 569.351562 C 1061.160156 569.519531 1063.980469 568.441406 1065.191406 566.332031 C 1066.402344 564.222656 1065.941406 561.246094 1063.847656 557.964844 C 1061.671875 554.566406 1058.0625 551.285156 1053.648438 548.742188 C 1049.234375 546.199219 1044.597656 544.695312 1040.566406 544.527344 C 1040.300781 544.511719 1040.039062 544.5 1039.789062 544.5 Z M 1039.789062 544.5 " fill-opacity="1" fill-rule="nonzero"/></svg>