<svg xmlns="http://www.w3.org/2000/svg" xmlns:xlink="http://www.w3.org/1999/xlink" width="2000" zoomAndPan="magnify" viewBox="0 0 1500 1499.999933" height="2000" preserveAspectRatio="xMidYMid meet" version="1.0"><defs><g/><clipPath id="cf50a0d5a9"><path d="M 262 528 L 641 528 L 641 906 L 262 906 Z M 262 528 " clip-rule="nonzero"/></clipPath><clipPath id="1a195a414c"><path d="M 502.390625 979.214844 L 188.53125 665.355469 L 399.417969 454.46875 L 713.277344 768.328125 Z M 502.390625 979.214844 " clip-rule="nonzero"/></clipPath><clipPath id="383254c504"><path d="M 345.769531 822.59375 C 432.269531 909.09375 549.597656 932.003906 607.832031 873.769531 C 666.066406 815.535156 643.15625 698.207031 556.65625 611.707031 C 470.15625 525.207031 352.828125 502.296875 294.59375 560.53125 C 236.359375 618.765625 259.269531 736.09375 345.769531 822.59375 Z M 345.769531 822.59375 " clip-rule="nonzero"/></clipPath><clipPath id="477a728f46"><path d="M 0 0 L 379 0 L 379 378 L 0 378 Z M 0 0 " clip-rule="nonzero"/></clipPath><clipPath id="d0abf00b89"><path d="M 240.390625 451.214844 L -73.46875 137.355469 L 137.417969 -73.53125 L 451.277344 240.328125 Z M 240.390625 451.214844 " clip-rule="nonzero"/></clipPath><clipPath id="832405359f"><path d="M 83.769531 294.59375 C 170.269531 381.09375 287.597656 404.003906 345.832031 345.769531 C 404.066406 287.535156 381.15625 170.207031 294.65625 83.707031 C 208.15625 -2.792969 90.828125 -25.703125 32.59375 32.53125 C -25.640625 90.765625 -2.730469 208.09375 83.769531 294.59375 Z M 83.769531 294.59375 " clip-rule="nonzero"/></clipPath><clipPath id="9efe2fdf47"><rect x="0" width="379" y="0" height="378"/></clipPath><clipPath id="bff6a4b467"><path d="M 262 528 L 641 528 L 641 906 L 262 906 Z M 262 528 " clip-rule="nonzero"/></clipPath><clipPath id="d48f1d0ed8"><path d="M 502.390625 979.214844 L 188.964844 665.789062 L 400.035156 454.71875 L 713.460938 768.140625 Z M 502.390625 979.214844 " clip-rule="nonzero"/></clipPath><clipPath id="7704b24e5e"><path d="M 502.390625 979.210938 L 186.78125 663.601562 L 398.078125 452.304688 L 713.6875 767.914062 Z M 502.390625 979.210938 " clip-rule="nonzero"/></clipPath><clipPath id="a43b3fdbfa"><path d="M 345.773438 822.597656 C 432.269531 909.09375 549.597656 932.003906 607.828125 873.773438 C 666.0625 815.539062 643.152344 698.210938 556.652344 611.714844 C 470.15625 525.21875 352.832031 502.308594 294.597656 560.539062 C 236.363281 618.773438 259.277344 736.101562 345.773438 822.597656 Z M 345.773438 822.597656 " clip-rule="nonzero"/></clipPath><clipPath id="15c637be1b"><path d="M 240 506 L 663 506 L 663 929 L 240 929 Z M 240 506 " clip-rule="nonzero"/></clipPath><clipPath id="b339d588b4"><path d="M 729.75 609.804688 L 343.253906 996.300781 L 172.070312 825.121094 L 558.566406 438.621094 Z M 729.75 609.804688 " clip-rule="nonzero"/></clipPath><clipPath id="d87b0a0fde"><path d="M 536.804688 802.75 C 643.367188 696.1875 691.429688 571.484375 644.160156 524.210938 C 596.886719 476.941406 472.183594 525.007812 365.621094 631.566406 C 259.058594 738.128906 210.996094 862.835938 258.265625 910.105469 C 305.539062 957.375 430.242188 909.3125 536.804688 802.75 Z M 536.804688 802.75 " clip-rule="nonzero"/></clipPath><clipPath id="0b7c88578a"><path d="M 0 0 L 423 0 L 423 423 L 0 423 Z M 0 0 " clip-rule="nonzero"/></clipPath><clipPath id="8867efc9d6"><path d="M 489.75 103.804688 L 103.253906 490.300781 L -67.929688 319.121094 L 318.566406 -67.378906 Z M 489.75 103.804688 " clip-rule="nonzero"/></clipPath><clipPath id="573d6a246e"><path d="M 296.804688 296.75 C 403.367188 190.1875 451.429688 65.484375 404.160156 18.210938 C 356.886719 -29.058594 232.183594 19.007812 125.621094 125.566406 C 19.058594 232.128906 -29.003906 356.835938 18.265625 404.105469 C 65.539062 451.375 190.242188 403.3125 296.804688 296.75 Z M 296.804688 296.75 " clip-rule="nonzero"/></clipPath><clipPath id="8d8a7a4793"><rect x="0" width="423" y="0" height="423"/></clipPath><clipPath id="1e456f5780"><path d="M 240 506 L 663 506 L 663 929 L 240 929 Z M 240 506 " clip-rule="nonzero"/></clipPath><clipPath id="da7114d505"><path d="M 729.75 609.804688 L 343.671875 995.882812 L 172.375 824.585938 L 558.453125 438.507812 Z M 729.75 609.804688 " clip-rule="nonzero"/></clipPath><clipPath id="19e601a08a"><path d="M 729.75 609.804688 L 341.917969 997.636719 L 170.738281 826.457031 L 558.570312 438.625 Z M 729.75 609.804688 " clip-rule="nonzero"/></clipPath><clipPath id="fe628354ea"><path d="M 536.804688 802.75 C 643.367188 696.1875 691.429688 571.484375 644.160156 524.214844 C 596.890625 476.945312 472.183594 525.007812 365.625 631.570312 C 259.066406 738.128906 211 862.832031 258.269531 910.101562 C 305.542969 957.371094 430.246094 909.308594 536.804688 802.75 Z M 536.804688 802.75 " clip-rule="nonzero"/></clipPath><clipPath id="a9efdf1790"><path d="M 377.191406 643.125 L 525.101562 643.125 L 525.101562 791.035156 L 377.191406 791.035156 Z M 377.191406 643.125 " clip-rule="nonzero"/></clipPath><clipPath id="77e5c30962"><path d="M 303.234375 717.082031 L 451.144531 569.171875 L 599.054688 717.082031 L 451.144531 864.992188 Z M 303.234375 717.082031 " clip-rule="nonzero"/></clipPath><clipPath id="2507424cc9"><path d="M 0.191406 0.125 L 148.101562 0.125 L 148.101562 148.035156 L 0.191406 148.035156 Z M 0.191406 0.125 " clip-rule="nonzero"/></clipPath><clipPath id="b8d33114d8"><path d="M -73.765625 74.082031 L 74.144531 -73.828125 L 222.054688 74.082031 L 74.144531 221.992188 Z M -73.765625 74.082031 " clip-rule="nonzero"/></clipPath><clipPath id="64135f8de0"><rect x="0" width="149" y="0" height="149"/></clipPath><clipPath id="f395e92062"><path d="M 377.1875 643.128906 L 525.089844 643.128906 L 525.089844 791.035156 L 377.1875 791.035156 Z M 377.1875 643.128906 " clip-rule="nonzero"/></clipPath><clipPath id="b063305789"><path d="M 303.234375 717.082031 L 451.199219 569.121094 L 599.160156 717.082031 L 451.199219 865.042969 Z M 303.234375 717.082031 " clip-rule="nonzero"/></clipPath><clipPath id="2cc88df106"><path d="M 303.234375 717.082031 L 451.140625 569.179688 L 599.042969 717.082031 L 451.140625 864.984375 Z M 303.234375 717.082031 " clip-rule="nonzero"/></clipPath><clipPath id="882469e4f0"><path d="M 391 656 L 512 656 L 512 777 L 391 777 Z M 391 656 " clip-rule="nonzero"/></clipPath><clipPath id="8be71a373e"><path d="M 391.675781 770.085938 L 505.21875 656.542969 L 511.222656 662.546875 L 397.679688 776.089844 Z M 391.675781 770.085938 " clip-rule="nonzero"/></clipPath><clipPath id="28db256ca9"><path d="M 0.441406 0.398438 L 120.441406 0.398438 L 120.441406 120.160156 L 0.441406 120.160156 Z M 0.441406 0.398438 " clip-rule="nonzero"/></clipPath><clipPath id="52696c60c0"><path d="M 0.675781 114.085938 L 114.21875 0.542969 L 120.222656 6.546875 L 6.679688 120.089844 Z M 0.675781 114.085938 " clip-rule="nonzero"/></clipPath><clipPath id="d38de42b93"><rect x="0" width="121" y="0" height="121"/></clipPath><clipPath id="66f9e6a951"><path d="M 363 767 L 401 767 L 401 806 L 363 806 Z M 363 767 " clip-rule="nonzero"/></clipPath><clipPath id="fb1a1f6fe0"><path d="M 355.242188 786.1875 L 382.039062 759.390625 L 408.835938 786.1875 L 382.039062 812.984375 Z M 355.242188 786.1875 " clip-rule="nonzero"/></clipPath><clipPath id="9fb09fff16"><path d="M 368.640625 772.789062 C 361.242188 780.1875 361.242188 792.1875 368.640625 799.585938 C 376.039062 806.984375 388.039062 806.984375 395.4375 799.585938 C 402.835938 792.1875 402.835938 780.1875 395.4375 772.789062 C 388.039062 765.390625 376.039062 765.390625 368.640625 772.789062 Z M 368.640625 772.789062 " clip-rule="nonzero"/></clipPath><clipPath id="99fd05462f"><path d="M 0 0 L 38 0 L 38 39 L 0 39 Z M 0 0 " clip-rule="nonzero"/></clipPath><clipPath id="9cbf7a46cc"><path d="M -7.757812 19.1875 L 19.039062 -7.609375 L 45.835938 19.1875 L 19.039062 45.984375 Z M -7.757812 19.1875 " clip-rule="nonzero"/></clipPath><clipPath id="6484db4646"><path d="M 5.640625 5.789062 C -1.757812 13.1875 -1.757812 25.1875 5.640625 32.585938 C 13.039062 39.984375 25.039062 39.984375 32.4375 32.585938 C 39.835938 25.1875 39.835938 13.1875 32.4375 5.789062 C 25.039062 -1.609375 13.039062 -1.609375 5.640625 5.789062 Z M 5.640625 5.789062 " clip-rule="nonzero"/></clipPath><clipPath id="b85b343c75"><rect x="0" width="38" y="0" height="39"/></clipPath><clipPath id="37bf967110"><path d="M 363 767 L 401 767 L 401 806 L 363 806 Z M 363 767 " clip-rule="nonzero"/></clipPath><clipPath id="98223acd92"><path d="M 355.242188 786.1875 L 382.289062 759.140625 L 409.335938 786.1875 L 382.289062 813.234375 Z M 355.242188 786.1875 " clip-rule="nonzero"/></clipPath><clipPath id="e326666e01"><path d="M 355.242188 786.1875 L 382.03125 759.398438 L 408.824219 786.1875 L 382.03125 812.976562 Z M 355.242188 786.1875 " clip-rule="nonzero"/></clipPath><clipPath id="74b9d9f87f"><path d="M 368.636719 772.792969 C 361.238281 780.191406 361.238281 792.183594 368.636719 799.582031 C 376.035156 806.980469 388.03125 806.980469 395.425781 799.582031 C 402.824219 792.183594 402.824219 780.191406 395.425781 772.792969 C 388.03125 765.394531 376.035156 765.394531 368.636719 772.792969 Z M 368.636719 772.792969 " clip-rule="nonzero"/></clipPath><clipPath id="d5b57e1842"><path d="M 432 698 L 471 698 L 471 737 L 432 737 Z M 432 698 " clip-rule="nonzero"/></clipPath><clipPath id="208ed883e7"><path d="M 424.347656 717.082031 L 451.144531 690.285156 L 477.941406 717.082031 L 451.144531 743.878906 Z M 424.347656 717.082031 " clip-rule="nonzero"/></clipPath><clipPath id="2ebd0bfe46"><path d="M 437.746094 703.683594 C 430.347656 711.082031 430.347656 723.078125 437.746094 730.480469 C 445.148438 737.878906 457.144531 737.878906 464.542969 730.480469 C 471.945312 723.078125 471.945312 711.082031 464.542969 703.683594 C 457.144531 696.285156 445.148438 696.285156 437.746094 703.683594 Z M 437.746094 703.683594 " clip-rule="nonzero"/></clipPath><clipPath id="b8f9763ed4"><path d="M 0 0 L 39 0 L 39 39 L 0 39 Z M 0 0 " clip-rule="nonzero"/></clipPath><clipPath id="eb5b517db2"><path d="M -7.652344 19.082031 L 19.144531 -7.714844 L 45.941406 19.082031 L 19.144531 45.878906 Z M -7.652344 19.082031 " clip-rule="nonzero"/></clipPath><clipPath id="7b80e86864"><path d="M 5.746094 5.683594 C -1.652344 13.082031 -1.652344 25.078125 5.746094 32.480469 C 13.148438 39.878906 25.144531 39.878906 32.542969 32.480469 C 39.945312 25.078125 39.945312 13.082031 32.542969 5.683594 C 25.144531 -1.714844 13.148438 -1.714844 5.746094 5.683594 Z M 5.746094 5.683594 " clip-rule="nonzero"/></clipPath><clipPath id="b2f87cfc69"><rect x="0" width="39" y="0" height="39"/></clipPath><clipPath id="926ca7740e"><path d="M 432 698 L 471 698 L 471 737 L 432 737 Z M 432 698 " clip-rule="nonzero"/></clipPath><clipPath id="d16443c68d"><path d="M 424.347656 717.082031 L 451.394531 690.035156 L 478.441406 717.082031 L 451.394531 744.128906 Z M 424.347656 717.082031 " clip-rule="nonzero"/></clipPath><clipPath id="c8a5c14abe"><path d="M 424.347656 717.082031 L 451.140625 690.292969 L 477.929688 717.082031 L 451.140625 743.871094 Z M 424.347656 717.082031 " clip-rule="nonzero"/></clipPath><clipPath id="af6c662eb7"><path d="M 437.742188 703.6875 C 430.347656 711.085938 430.347656 723.078125 437.742188 730.476562 C 445.140625 737.875 457.136719 737.875 464.535156 730.476562 C 471.933594 723.078125 471.933594 711.085938 464.535156 703.6875 C 457.136719 696.289062 445.140625 696.289062 437.742188 703.6875 Z M 437.742188 703.6875 " clip-rule="nonzero"/></clipPath><clipPath id="92112db6ba"><path d="M 501 629 L 540 629 L 540 667 L 501 667 Z M 501 629 " clip-rule="nonzero"/></clipPath><clipPath id="2954923ef5"><path d="M 493.457031 647.976562 L 520.25 621.179688 L 547.046875 647.976562 L 520.25 674.773438 Z M 493.457031 647.976562 " clip-rule="nonzero"/></clipPath><clipPath id="c9fd12ec80"><path d="M 506.851562 634.578125 C 499.453125 641.976562 499.453125 653.972656 506.851562 661.375 C 514.253906 668.773438 526.25 668.773438 533.648438 661.375 C 541.050781 653.972656 541.050781 641.976562 533.648438 634.578125 C 526.25 627.175781 514.253906 627.175781 506.851562 634.578125 Z M 506.851562 634.578125 " clip-rule="nonzero"/></clipPath><clipPath id="c98b827086"><path d="M 0 0 L 39 0 L 39 38 L 0 38 Z M 0 0 " clip-rule="nonzero"/></clipPath><clipPath id="e411df37a7"><path d="M -7.542969 18.976562 L 19.25 -7.820312 L 46.046875 18.976562 L 19.25 45.773438 Z M -7.542969 18.976562 " clip-rule="nonzero"/></clipPath><clipPath id="605ec70634"><path d="M 5.851562 5.578125 C -1.546875 12.976562 -1.546875 24.972656 5.851562 32.375 C 13.253906 39.773438 25.25 39.773438 32.648438 32.375 C 40.050781 24.972656 40.050781 12.976562 32.648438 5.578125 C 25.25 -1.824219 13.253906 -1.824219 5.851562 5.578125 Z M 5.851562 5.578125 " clip-rule="nonzero"/></clipPath><clipPath id="6934ebafb0"><rect x="0" width="39" y="0" height="38"/></clipPath><clipPath id="240d6e04fa"><path d="M 501 629 L 540 629 L 540 667 L 501 667 Z M 501 629 " clip-rule="nonzero"/></clipPath><clipPath id="077da519c6"><path d="M 493.457031 647.976562 L 520.5 620.929688 L 547.546875 647.976562 L 520.5 675.023438 Z M 493.457031 647.976562 " clip-rule="nonzero"/></clipPath><clipPath id="7e08f3976e"><path d="M 493.457031 647.976562 L 520.246094 621.183594 L 547.035156 647.976562 L 520.246094 674.765625 Z M 493.457031 647.976562 " clip-rule="nonzero"/></clipPath><clipPath id="566a2c19b4"><path d="M 506.851562 634.582031 C 499.453125 641.976562 499.453125 653.972656 506.851562 661.371094 C 514.246094 668.769531 526.242188 668.769531 533.640625 661.371094 C 541.039062 653.972656 541.039062 641.976562 533.640625 634.582031 C 526.242188 627.183594 514.246094 627.183594 506.851562 634.582031 Z M 506.851562 634.582031 " clip-rule="nonzero"/></clipPath><clipPath id="534bbd0f72"><path d="M 363 629 L 402 629 L 402 668 L 363 668 Z M 363 629 " clip-rule="nonzero"/></clipPath><clipPath id="db2c53e8e7"><path d="M 355.660156 648.390625 L 382.457031 621.59375 L 409.25 648.390625 L 382.457031 675.1875 Z M 355.660156 648.390625 " clip-rule="nonzero"/></clipPath><clipPath id="842b456b71"><path d="M 369.058594 634.992188 C 361.65625 642.390625 361.65625 654.390625 369.058594 661.789062 C 376.457031 669.1875 388.453125 669.1875 395.855469 661.789062 C 403.253906 654.390625 403.253906 642.390625 395.855469 634.992188 C 388.453125 627.59375 376.457031 627.59375 369.058594 634.992188 Z M 369.058594 634.992188 " clip-rule="nonzero"/></clipPath><clipPath id="673091ca45"><path d="M 0 0 L 39 0 L 39 39 L 0 39 Z M 0 0 " clip-rule="nonzero"/></clipPath><clipPath id="001d9170f7"><path d="M -7.339844 19.390625 L 19.457031 -7.40625 L 46.25 19.390625 L 19.457031 46.1875 Z M -7.339844 19.390625 " clip-rule="nonzero"/></clipPath><clipPath id="7f325cfd74"><path d="M 6.058594 5.992188 C -1.34375 13.390625 -1.34375 25.390625 6.058594 32.789062 C 13.457031 40.1875 25.453125 40.1875 32.855469 32.789062 C 40.253906 25.390625 40.253906 13.390625 32.855469 5.992188 C 25.453125 -1.40625 13.457031 -1.40625 6.058594 5.992188 Z M 6.058594 5.992188 " clip-rule="nonzero"/></clipPath><clipPath id="65ea2dc10e"><rect x="0" width="39" y="0" height="39"/></clipPath><clipPath id="1fa2066ee3"><path d="M 363 629 L 402 629 L 402 668 L 363 668 Z M 363 629 " clip-rule="nonzero"/></clipPath><clipPath id="3a0b61c5dd"><path d="M 355.660156 648.390625 L 382.707031 621.34375 L 409.753906 648.390625 L 382.707031 675.4375 Z M 355.660156 648.390625 " clip-rule="nonzero"/></clipPath><clipPath id="69b0b48738"><path d="M 355.660156 648.390625 L 382.449219 621.601562 L 409.238281 648.390625 L 382.449219 675.179688 Z M 355.660156 648.390625 " clip-rule="nonzero"/></clipPath><clipPath id="43ec3128a8"><path d="M 369.054688 634.996094 C 361.65625 642.394531 361.65625 654.386719 369.054688 661.785156 C 376.453125 669.183594 388.445312 669.183594 395.84375 661.785156 C 403.242188 654.386719 403.242188 642.394531 395.84375 634.996094 C 388.445312 627.597656 376.453125 627.597656 369.054688 634.996094 Z M 369.054688 634.996094 " clip-rule="nonzero"/></clipPath><clipPath id="2c0147cc48"><path d="M 501 766 L 539 766 L 539 805 L 501 805 Z M 501 766 " clip-rule="nonzero"/></clipPath><clipPath id="e3aa88f377"><path d="M 493.1875 785.917969 L 519.984375 759.125 L 546.78125 785.917969 L 519.984375 812.714844 Z M 493.1875 785.917969 " clip-rule="nonzero"/></clipPath><clipPath id="e89e8ca5e6"><path d="M 506.585938 772.519531 C 499.1875 779.921875 499.1875 791.917969 506.585938 799.316406 C 513.984375 806.71875 525.984375 806.71875 533.382812 799.316406 C 540.78125 791.917969 540.78125 779.921875 533.382812 772.519531 C 525.984375 765.121094 513.984375 765.121094 506.585938 772.519531 Z M 506.585938 772.519531 " clip-rule="nonzero"/></clipPath><clipPath id="d4b0dd50ef"><path d="M 0 0 L 38 0 L 38 39 L 0 39 Z M 0 0 " clip-rule="nonzero"/></clipPath><clipPath id="db93c840de"><path d="M -7.8125 19.917969 L 18.984375 -6.875 L 45.78125 19.917969 L 18.984375 46.714844 Z M -7.8125 19.917969 " clip-rule="nonzero"/></clipPath><clipPath id="19337afb28"><path d="M 5.585938 6.519531 C -1.8125 13.921875 -1.8125 25.917969 5.585938 33.316406 C 12.984375 40.71875 24.984375 40.71875 32.382812 33.316406 C 39.78125 25.917969 39.78125 13.921875 32.382812 6.519531 C 24.984375 -0.878906 12.984375 -0.878906 5.585938 6.519531 Z M 5.585938 6.519531 " clip-rule="nonzero"/></clipPath><clipPath id="fc695049bf"><rect x="0" width="38" y="0" height="39"/></clipPath><clipPath id="2455fb2962"><path d="M 501 766 L 539 766 L 539 805 L 501 805 Z M 501 766 " clip-rule="nonzero"/></clipPath><clipPath id="b0ddd6a149"><path d="M 493.1875 785.917969 L 520.234375 758.871094 L 547.28125 785.917969 L 520.234375 812.964844 Z M 493.1875 785.917969 " clip-rule="nonzero"/></clipPath><clipPath id="322e6fd51e"><path d="M 493.1875 785.917969 L 519.976562 759.128906 L 546.765625 785.917969 L 519.976562 812.710938 Z M 493.1875 785.917969 " clip-rule="nonzero"/></clipPath><clipPath id="c87735d605"><path d="M 506.582031 772.523438 C 499.183594 779.921875 499.183594 791.917969 506.582031 799.316406 C 513.980469 806.710938 525.972656 806.710938 533.371094 799.316406 C 540.769531 791.917969 540.769531 779.921875 533.371094 772.523438 C 525.972656 765.125 513.980469 765.125 506.582031 772.523438 Z M 506.582031 772.523438 " clip-rule="nonzero"/></clipPath><clipPath id="aeec1924df"><path d="M 675.507812 720.039062 L 1199.859375 720.039062 L 1199.859375 871.871094 L 675.507812 871.871094 Z M 675.507812 720.039062 " clip-rule="nonzero"/></clipPath><clipPath id="db94ff0e99"><path d="M 0.507812 0.0390625 L 524.859375 0.0390625 L 524.859375 151.871094 L 0.507812 151.871094 Z M 0.507812 0.0390625 " clip-rule="nonzero"/></clipPath><clipPath id="e75cc26f7e"><rect x="0" width="525" y="0" height="152"/></clipPath><clipPath id="a9adbe099c"><rect x="0" width="532" y="0" height="341"/></clipPath><clipPath id="59d7b533d0"><rect x="0" width="536" y="0" height="236"/></clipPath><clipPath id="67d53c37b1"><path d="M 1033.085938 455.097656 L 1105.835938 455.097656 L 1105.835938 527.847656 L 1033.085938 527.847656 Z M 1033.085938 455.097656 " clip-rule="nonzero"/></clipPath></defs><g clip-path="url(#cf50a0d5a9)"><g clip-path="url(#1a195a414c)"><g clip-path="url(#383254c504)"><g transform="matrix(1, 0, 0, 1, 262, 528)"><g clip-path="url(#9efe2fdf47)"><g clip-path="url(#477a728f46)"><g clip-path="url(#d0abf00b89)"><g clip-path="url(#832405359f)"><path fill="#06464f" d="M 240.390625 451.214844 L -72.644531 138.179688 L 138.242188 -72.707031 L 451.277344 240.328125 Z M 240.390625 451.214844 " fill-opacity="1" fill-rule="nonzero"/></g></g></g></g></g></g></g></g><g clip-path="url(#bff6a4b467)"><g clip-path="url(#d48f1d0ed8)"><g clip-path="url(#7704b24e5e)"><g clip-path="url(#a43b3fdbfa)"><path stroke-linecap="butt" transform="matrix(-0.53033, -0.53033, 0.53033, -0.53033, 502.390238, 979.213792)" fill="none" stroke-linejoin="miter" d="M 295.318868 -0.000627129 C 132.220257 -0.000627129 0.00232613 89.017495 0.00232613 198.817929 C 0.00232613 308.625728 132.220257 397.64385 295.322551 397.640167 C 458.421163 397.640167 590.635411 308.625728 590.639094 198.821612 C 590.639094 89.013812 458.41748 -0.000627129 295.318868 -0.000627129 Z M 295.318868 -0.000627129 " stroke="#ffffff" stroke-width="78" stroke-opacity="1" stroke-miterlimit="4"/></g></g></g></g><g clip-path="url(#15c637be1b)"><g clip-path="url(#b339d588b4)"><g clip-path="url(#d87b0a0fde)"><g transform="matrix(1, 0, 0, 1, 240, 506)"><g clip-path="url(#8d8a7a4793)"><g clip-path="url(#0b7c88578a)"><g clip-path="url(#8867efc9d6)"><g clip-path="url(#573d6a246e)"><path fill="#06464f" d="M 489.75 103.804688 L 103.921875 489.632812 L -67.261719 318.449219 L 318.566406 -67.378906 Z M 489.75 103.804688 " fill-opacity="1" fill-rule="nonzero"/></g></g></g></g></g></g></g></g><g clip-path="url(#1e456f5780)"><g clip-path="url(#da7114d505)"><g clip-path="url(#19e601a08a)"><g clip-path="url(#fe628354ea)"><path stroke-linecap="butt" transform="matrix(-0.53033, 0.53033, -0.53033, -0.53033, 729.750666, 609.804119)" fill="none" stroke-linejoin="miter" d="M 363.822364 0.0000928381 C 162.886171 0.0000928381 0.00116392 72.257573 0.00116392 161.389863 C 0.00116392 250.522153 162.889853 322.783316 363.822364 322.779634 C 564.751192 322.779634 727.639881 250.525836 727.636199 161.389863 C 727.636199 72.257573 564.751192 0.0000928381 363.822364 0.0000928381 Z M 363.822364 0.0000928381 " stroke="#ffffff" stroke-width="78" stroke-opacity="1" stroke-miterlimit="4"/></g></g></g></g><g clip-path="url(#a9efdf1790)"><g clip-path="url(#77e5c30962)"><g transform="matrix(1, 0, 0, 1, 377, 643)"><g clip-path="url(#64135f8de0)"><g clip-path="url(#2507424cc9)"><g clip-path="url(#b8d33114d8)"><path fill="#06464f" d="M -73.765625 74.082031 L 74.144531 -73.828125 L 222.054688 74.082031 L 74.144531 221.992188 Z M -73.765625 74.082031 " fill-opacity="1" fill-rule="nonzero"/></g></g></g></g></g></g><g clip-path="url(#f395e92062)"><g clip-path="url(#b063305789)"><g clip-path="url(#2cc88df106)"><path stroke-linecap="butt" transform="matrix(0.53033, -0.53033, 0.53033, 0.53033, 303.235378, 717.081902)" fill="none" stroke-linejoin="miter" d="M 139.446294 -0.000823654 L 278.889973 139.442855 L 139.442611 278.890216 L -0.00106693 139.446538 Z M 139.446294 -0.000823654 " stroke="#ffffff" stroke-width="22" stroke-opacity="1" stroke-miterlimit="4"/></g></g></g><g clip-path="url(#882469e4f0)"><g clip-path="url(#8be71a373e)"><g transform="matrix(1, 0, 0, 1, 391, 656)"><g clip-path="url(#d38de42b93)"><g clip-path="url(#28db256ca9)"><g clip-path="url(#52696c60c0)"><path fill="#ffffff" d="M 0.675781 114.085938 L 114.214844 0.546875 L 120.21875 6.550781 L 6.679688 120.089844 Z M 0.675781 114.085938 " fill-opacity="1" fill-rule="nonzero"/></g></g></g></g></g></g><g clip-path="url(#66f9e6a951)"><g clip-path="url(#fb1a1f6fe0)"><g clip-path="url(#9fb09fff16)"><g transform="matrix(1, 0, 0, 1, 363, 767)"><g clip-path="url(#b85b343c75)"><g clip-path="url(#99fd05462f)"><g clip-path="url(#9cbf7a46cc)"><g clip-path="url(#6484db4646)"><path fill="#fd9603" d="M -7.757812 19.1875 L 19.039062 -7.609375 L 45.835938 19.1875 L 19.039062 45.984375 Z M -7.757812 19.1875 " fill-opacity="1" fill-rule="nonzero"/></g></g></g></g></g></g></g></g><g clip-path="url(#37bf967110)"><g clip-path="url(#98223acd92)"><g clip-path="url(#e326666e01)"><g clip-path="url(#74b9d9f87f)"><path stroke-linecap="butt" transform="matrix(0.53033, -0.53033, 0.53033, 0.53033, 355.242747, 786.187592)" fill="none" stroke-linejoin="miter" d="M 25.256532 -0.000614273 C 11.305903 -0.000614273 -0.000440262 11.305729 -0.000440262 25.256358 C -0.000440262 39.206987 11.309586 50.517013 25.256532 50.513331 C 39.207161 50.513331 50.513505 39.206987 50.513505 25.256358 C 50.517187 11.309412 39.207161 -0.000614273 25.256532 -0.000614273 Z M 25.256532 -0.000614273 " stroke="#ffffff" stroke-width="10" stroke-opacity="1" stroke-miterlimit="4"/></g></g></g></g><g clip-path="url(#d5b57e1842)"><g clip-path="url(#208ed883e7)"><g clip-path="url(#2ebd0bfe46)"><g transform="matrix(1, 0, 0, 1, 432, 698)"><g clip-path="url(#b2f87cfc69)"><g clip-path="url(#b8f9763ed4)"><g clip-path="url(#eb5b517db2)"><g clip-path="url(#7b80e86864)"><path fill="#f7960d" d="M -7.652344 19.082031 L 19.144531 -7.714844 L 45.941406 19.082031 L 19.144531 45.878906 Z M -7.652344 19.082031 " fill-opacity="1" fill-rule="nonzero"/></g></g></g></g></g></g></g></g><g clip-path="url(#926ca7740e)"><g clip-path="url(#d16443c68d)"><g clip-path="url(#c8a5c14abe)"><g clip-path="url(#af6c662eb7)"><path stroke-linecap="butt" transform="matrix(0.53033, -0.53033, 0.53033, 0.53033, 424.348941, 717.081374)" fill="none" stroke-linejoin="miter" d="M 25.255142 -0.000591646 C 11.308196 0.0030912 0.00185232 11.309435 -0.00183052 25.256381 C -0.00183052 39.207009 11.308196 50.517036 25.258825 50.517036 C 39.209453 50.517036 50.515797 39.210692 50.515797 25.260064 C 50.515797 11.309435 39.205771 -0.000591646 25.255142 -0.000591646 Z M 25.255142 -0.000591646 " stroke="#ffffff" stroke-width="10" stroke-opacity="1" stroke-miterlimit="4"/></g></g></g></g><g clip-path="url(#92112db6ba)"><g clip-path="url(#2954923ef5)"><g clip-path="url(#c9fd12ec80)"><g transform="matrix(1, 0, 0, 1, 501, 629)"><g clip-path="url(#6934ebafb0)"><g clip-path="url(#c98b827086)"><g clip-path="url(#e411df37a7)"><g clip-path="url(#605ec70634)"><path fill="#ec981f" d="M -7.542969 18.976562 L 19.25 -7.820312 L 46.046875 18.976562 L 19.25 45.773438 Z M -7.542969 18.976562 " fill-opacity="1" fill-rule="nonzero"/></g></g></g></g></g></g></g></g><g clip-path="url(#240d6e04fa)"><g clip-path="url(#077da519c6)"><g clip-path="url(#7e08f3976e)"><g clip-path="url(#566a2c19b4)"><path stroke-linecap="butt" transform="matrix(0.53033, -0.53033, 0.53033, 0.53033, 493.455111, 647.975132)" fill="none" stroke-linejoin="miter" d="M 25.257434 0.00315908 C 11.310489 -0.000523763 0.000462062 11.309503 0.000462062 25.260132 C -0.00322079 39.207077 11.306806 50.517104 25.257434 50.517104 C 39.208063 50.517104 50.51809 39.207077 50.514407 25.260132 C 50.514407 11.309503 39.20438 -0.000523763 25.257434 0.00315908 Z M 25.257434 0.00315908 " stroke="#ffffff" stroke-width="10" stroke-opacity="1" stroke-miterlimit="4"/></g></g></g></g><g clip-path="url(#534bbd0f72)"><g clip-path="url(#db2c53e8e7)"><g clip-path="url(#842b456b71)"><g transform="matrix(1, 0, 0, 1, 363, 629)"><g clip-path="url(#65ea2dc10e)"><g clip-path="url(#673091ca45)"><g clip-path="url(#001d9170f7)"><g clip-path="url(#7f325cfd74)"><path fill="#ec981f" d="M -7.339844 19.390625 L 19.457031 -7.40625 L 46.25 19.390625 L 19.457031 46.1875 Z M -7.339844 19.390625 " fill-opacity="1" fill-rule="nonzero"/></g></g></g></g></g></g></g></g><g clip-path="url(#1fa2066ee3)"><g clip-path="url(#3a0b61c5dd)"><g clip-path="url(#69b0b48738)"><g clip-path="url(#43ec3128a8)"><path stroke-linecap="butt" transform="matrix(0.53033, -0.53033, 0.53033, 0.53033, 355.658703, 648.391148)" fill="none" stroke-linejoin="miter" d="M 25.258836 0.000877173 C 11.308207 0.000877173 0.00186364 11.307221 0.00186364 25.25785 C 0.00186364 39.208478 11.308207 50.514822 25.258836 50.514822 C 39.209465 50.514822 50.515808 39.208478 50.515808 25.25785 C 50.515808 11.307221 39.209465 0.000877173 25.258836 0.000877173 Z M 25.258836 0.000877173 " stroke="#06464f" stroke-width="10" stroke-opacity="1" stroke-miterlimit="4"/></g></g></g></g><g clip-path="url(#2c0147cc48)"><g clip-path="url(#e3aa88f377)"><g clip-path="url(#e89e8ca5e6)"><g transform="matrix(1, 0, 0, 1, 501, 766)"><g clip-path="url(#fc695049bf)"><g clip-path="url(#d4b0dd50ef)"><g clip-path="url(#db93c840de)"><g clip-path="url(#19337afb28)"><path fill="#fd9603" d="M -7.8125 19.917969 L 18.984375 -6.875 L 45.78125 19.917969 L 18.984375 46.714844 Z M -7.8125 19.917969 " fill-opacity="1" fill-rule="nonzero"/></g></g></g></g></g></g></g></g><g clip-path="url(#2455fb2962)"><g clip-path="url(#b0ddd6a149)"><g clip-path="url(#322e6fd51e)"><g clip-path="url(#c87735d605)"><path stroke-linecap="butt" transform="matrix(0.53033, -0.53033, 0.53033, 0.53033, 493.187223, 785.919704)" fill="none" stroke-linejoin="miter" d="M 25.25887 -0.00137502 C 11.308241 -0.00137502 -0.00178527 11.308652 -0.00178527 25.25928 C 0.00189758 39.206226 11.308241 50.51257 25.255187 50.516253 C 39.205816 50.516253 50.515842 39.206226 50.515842 25.255597 C 50.515842 11.304969 39.209499 -0.00137502 25.25887 -0.00137502 Z M 25.25887 -0.00137502 " stroke="#06464f" stroke-width="10" stroke-opacity="1" stroke-miterlimit="4"/></g></g></g></g><g clip-path="url(#aeec1924df)"><g transform="matrix(1, 0, 0, 1, 675, 720)"><g clip-path="url(#e75cc26f7e)"><g clip-path="url(#db94ff0e99)"><path fill="#ec981f" d="M 0.507812 0.0390625 L 524.800781 0.0390625 L 524.800781 151.871094 L 0.507812 151.871094 Z M 0.507812 0.0390625 " fill-opacity="1" fill-rule="nonzero"/></g></g></g></g><g transform="matrix(1, 0, 0, 1, 669, 478)"><g clip-path="url(#a9adbe099c)"><g fill="#ffffff" fill-opacity="1"><g transform="translate(0.849819, 227.258193)"><g><path d="M 43.671875 -152.390625 L 78.796875 -152.390625 C 102.054688 -152.390625 113.6875 -142.578125 113.6875 -122.953125 L 113.6875 -29.4375 C 113.6875 -9.8125 102.054688 0 78.796875 0 L 43.671875 0 C 20.410156 0 8.78125 -9.8125 8.78125 -29.4375 L 8.78125 -122.953125 C 8.78125 -142.578125 20.410156 -152.390625 43.671875 -152.390625 Z M 72.15625 -34.890625 L 72.15625 -117.5 C 72.15625 -120.976562 70.175781 -122.71875 66.21875 -122.71875 L 56.25 -122.71875 C 52.289062 -122.71875 50.3125 -120.976562 50.3125 -117.5 L 50.3125 -34.890625 C 50.3125 -31.410156 52.289062 -29.671875 56.25 -29.671875 L 66.21875 -29.671875 C 70.175781 -29.671875 72.15625 -31.410156 72.15625 -34.890625 Z M 72.15625 -34.890625 "/></g></g></g><g fill="#ffffff" fill-opacity="1"><g transform="translate(123.323339, 227.258193)"><g><path d="M 51.03125 -54.125 L 51.03125 0 L 9.5 0 L 9.5 -152.390625 L 79.984375 -152.390625 C 103.242188 -152.390625 114.875 -142.578125 114.875 -122.953125 L 114.875 -83.546875 C 114.875 -68.515625 108.070312 -59.257812 94.46875 -55.78125 L 122.484375 0 L 77.859375 0 L 53.640625 -54.125 Z M 67.40625 -122.71875 L 51.03125 -122.71875 L 51.03125 -82.359375 L 67.40625 -82.359375 C 71.363281 -82.359375 73.34375 -84.097656 73.34375 -87.578125 L 73.34375 -117.5 C 73.34375 -120.976562 71.363281 -122.71875 67.40625 -122.71875 Z M 67.40625 -122.71875 "/></g></g></g><g fill="#ffffff" fill-opacity="1"><g transform="translate(245.322157, 227.258193)"><g><path d="M 73.34375 -95.1875 L 73.34375 -119.859375 C 73.34375 -123.347656 71.363281 -125.09375 67.40625 -125.09375 L 50.3125 -125.09375 L 50.3125 -89.953125 L 67.40625 -89.953125 C 71.363281 -89.953125 73.34375 -91.695312 73.34375 -95.1875 Z M 73.34375 -32.515625 L 73.34375 -57.4375 C 73.34375 -60.914062 71.363281 -62.65625 67.40625 -62.65625 L 50.3125 -62.65625 L 50.3125 -27.296875 L 67.40625 -27.296875 C 71.363281 -27.296875 73.34375 -29.035156 73.34375 -32.515625 Z M 9.5 -152.390625 L 79.28125 -152.390625 C 102.539062 -152.390625 114.171875 -142.578125 114.171875 -122.953125 L 114.171875 -103.484375 C 114.171875 -89.722656 110.375 -80.785156 102.78125 -76.671875 C 107.207031 -74.765625 110.210938 -71.875 111.796875 -68 C 113.378906 -64.125 114.171875 -58.863281 114.171875 -52.21875 L 114.171875 -29.4375 C 114.171875 -9.8125 102.539062 0 79.28125 0 L 9.5 0 Z M 9.5 -152.390625 "/></g></g></g><g fill="#ffffff" fill-opacity="1"><g transform="translate(367.795677, 227.258193)"><g><path d="M 9.5 -152.390625 L 51.03125 -152.390625 L 51.03125 0 L 9.5 0 Z M 9.5 -152.390625 "/></g></g></g><g fill="#ffffff" fill-opacity="1"><g transform="translate(428.320384, 227.258193)"><g><path d="M 101.359375 -152.390625 L 101.359375 -122.71875 L 71.921875 -122.71875 L 71.921875 0 L 30.375 0 L 30.375 -122.71875 L 1.1875 -122.71875 L 1.1875 -152.390625 Z M 101.359375 -152.390625 "/></g></g></g></g></g><g transform="matrix(1, 0, 0, 1, 704, 687)"><g clip-path="url(#59d7b533d0)"><g fill="#06464f" fill-opacity="1"><g transform="translate(1.002434, 156.003917)"><g><path d="M 38.03125 -16.71875 L 38.03125 -41.796875 C 38.03125 -43.765625 37.726562 -45.050781 37.125 -45.65625 C 36.53125 -46.257812 35.25 -46.5625 33.28125 -46.5625 L 21.140625 -46.5625 C 11.203125 -46.5625 6.234375 -51.425781 6.234375 -61.15625 L 6.234375 -88.203125 C 6.234375 -97.816406 11.3125 -102.625 21.46875 -102.625 L 37.546875 -102.625 C 47.703125 -102.625 52.78125 -97.816406 52.78125 -88.203125 L 52.78125 -73.109375 L 37.875 -73.109375 L 37.875 -85.90625 C 37.875 -87.875 37.546875 -89.15625 36.890625 -89.75 C 36.234375 -90.351562 34.921875 -90.65625 32.953125 -90.65625 L 26.0625 -90.65625 C 24.09375 -90.65625 22.78125 -90.351562 22.125 -89.75 C 21.46875 -89.15625 21.140625 -87.875 21.140625 -85.90625 L 21.140625 -63.109375 C 21.140625 -61.148438 21.46875 -59.867188 22.125 -59.265625 C 22.78125 -58.660156 24.09375 -58.359375 26.0625 -58.359375 L 38.03125 -58.359375 C 48.082031 -58.359375 53.109375 -53.550781 53.109375 -43.9375 L 53.109375 -14.421875 C 53.109375 -4.804688 47.972656 0 37.703125 0 L 21.796875 0 C 11.640625 0 6.5625 -4.804688 6.5625 -14.421875 L 6.5625 -29.515625 L 21.46875 -29.515625 L 21.46875 -16.71875 C 21.46875 -14.75 21.796875 -13.460938 22.453125 -12.859375 C 23.109375 -12.265625 24.421875 -11.96875 26.390625 -11.96875 L 33.28125 -11.96875 C 35.25 -11.96875 36.53125 -12.265625 37.125 -12.859375 C 37.726562 -13.460938 38.03125 -14.75 38.03125 -16.71875 Z M 38.03125 -16.71875 "/></g></g></g><g fill="#06464f" fill-opacity="1"><g transform="translate(134.608637, 156.003917)"><g><path d="M 37.046875 -80 L 51.796875 -80 L 51.796875 0 L 37.046875 0 L 37.046875 -6.390625 C 35.628906 -2.128906 32.242188 0 26.890625 0 L 20.984375 0 C 11.148438 0 6.234375 -4.804688 6.234375 -14.421875 L 6.234375 -65.40625 C 6.234375 -75.132812 11.148438 -80 20.984375 -80 L 26.890625 -80 C 32.242188 -80 35.628906 -77.867188 37.046875 -73.609375 Z M 25.90625 -11.96875 L 31.640625 -11.96875 C 33.609375 -11.96875 35 -12.40625 35.8125 -13.28125 C 36.632812 -14.15625 37.046875 -15.628906 37.046875 -17.703125 L 37.046875 -62.296875 C 37.046875 -64.367188 36.632812 -65.84375 35.8125 -66.71875 C 35 -67.59375 33.609375 -68.03125 31.640625 -68.03125 L 25.90625 -68.03125 C 23.9375 -68.03125 22.625 -67.726562 21.96875 -67.125 C 21.3125 -66.53125 20.984375 -65.25 20.984375 -63.28125 L 20.984375 -16.71875 C 20.984375 -14.75 21.3125 -13.460938 21.96875 -12.859375 C 22.625 -12.265625 23.9375 -11.96875 25.90625 -11.96875 Z M 25.90625 -11.96875 "/></g></g></g><g fill="#06464f" fill-opacity="1"><g transform="translate(268.050926, 156.003917)"><g><path d="M 37.046875 -80 L 51.796875 -80 L 51.796875 0 L 37.046875 0 L 37.046875 -6.390625 C 35.628906 -2.128906 32.242188 0 26.890625 0 L 20.984375 0 C 11.148438 0 6.234375 -4.804688 6.234375 -14.421875 L 6.234375 -65.40625 C 6.234375 -75.132812 11.148438 -80 20.984375 -80 L 26.890625 -80 C 32.242188 -80 35.628906 -77.867188 37.046875 -73.609375 Z M 25.90625 -11.96875 L 31.640625 -11.96875 C 33.609375 -11.96875 35 -12.40625 35.8125 -13.28125 C 36.632812 -14.15625 37.046875 -15.628906 37.046875 -17.703125 L 37.046875 -62.296875 C 37.046875 -64.367188 36.632812 -65.84375 35.8125 -66.71875 C 35 -67.59375 33.609375 -68.03125 31.640625 -68.03125 L 25.90625 -68.03125 C 23.9375 -68.03125 22.625 -67.726562 21.96875 -67.125 C 21.3125 -66.53125 20.984375 -65.25 20.984375 -63.28125 L 20.984375 -16.71875 C 20.984375 -14.75 21.3125 -13.460938 21.96875 -12.859375 C 22.625 -12.265625 23.9375 -11.96875 25.90625 -11.96875 Z M 25.90625 -11.96875 "/></g></g></g><g fill="#06464f" fill-opacity="1"><g transform="translate(401.493195, 156.003917)"><g><path d="M 38.03125 -16.71875 L 38.03125 -41.796875 C 38.03125 -43.765625 37.726562 -45.050781 37.125 -45.65625 C 36.53125 -46.257812 35.25 -46.5625 33.28125 -46.5625 L 21.140625 -46.5625 C 11.203125 -46.5625 6.234375 -51.425781 6.234375 -61.15625 L 6.234375 -88.203125 C 6.234375 -97.816406 11.3125 -102.625 21.46875 -102.625 L 37.546875 -102.625 C 47.703125 -102.625 52.78125 -97.816406 52.78125 -88.203125 L 52.78125 -73.109375 L 37.875 -73.109375 L 37.875 -85.90625 C 37.875 -87.875 37.546875 -89.15625 36.890625 -89.75 C 36.234375 -90.351562 34.921875 -90.65625 32.953125 -90.65625 L 26.0625 -90.65625 C 24.09375 -90.65625 22.78125 -90.351562 22.125 -89.75 C 21.46875 -89.15625 21.140625 -87.875 21.140625 -85.90625 L 21.140625 -63.109375 C 21.140625 -61.148438 21.46875 -59.867188 22.125 -59.265625 C 22.78125 -58.660156 24.09375 -58.359375 26.0625 -58.359375 L 38.03125 -58.359375 C 48.082031 -58.359375 53.109375 -53.550781 53.109375 -43.9375 L 53.109375 -14.421875 C 53.109375 -4.804688 47.972656 0 37.703125 0 L 21.796875 0 C 11.640625 0 6.5625 -4.804688 6.5625 -14.421875 L 6.5625 -29.515625 L 21.46875 -29.515625 L 21.46875 -16.71875 C 21.46875 -14.75 21.796875 -13.460938 22.453125 -12.859375 C 23.109375 -12.265625 24.421875 -11.96875 26.390625 -11.96875 L 33.28125 -11.96875 C 35.25 -11.96875 36.53125 -12.265625 37.125 -12.859375 C 37.726562 -13.460938 38.03125 -14.75 38.03125 -16.71875 Z M 38.03125 -16.71875 "/></g></g></g></g></g><g clip-path="url(#67d53c37b1)"><path fill="#ffffff" d="M 1105.554688 491.332031 C 1105.554688 492.519531 1105.496094 493.703125 1105.378906 494.882812 C 1105.261719 496.0625 1105.089844 497.234375 1104.859375 498.398438 C 1104.625 499.5625 1104.339844 500.714844 1103.992188 501.847656 C 1103.648438 502.984375 1103.25 504.101562 1102.796875 505.199219 C 1102.34375 506.292969 1101.835938 507.367188 1101.277344 508.410156 C 1100.714844 509.457031 1100.105469 510.476562 1099.449219 511.460938 C 1098.789062 512.449219 1098.082031 513.402344 1097.328125 514.316406 C 1096.578125 515.234375 1095.78125 516.113281 1094.941406 516.953125 C 1094.101562 517.792969 1093.222656 518.585938 1092.308594 519.339844 C 1091.390625 520.09375 1090.4375 520.800781 1089.449219 521.457031 C 1088.464844 522.117188 1087.449219 522.726562 1086.402344 523.285156 C 1085.355469 523.847656 1084.28125 524.351562 1083.1875 524.808594 C 1082.089844 525.261719 1080.972656 525.660156 1079.839844 526.003906 C 1078.703125 526.351562 1077.554688 526.636719 1076.390625 526.871094 C 1075.226562 527.101562 1074.050781 527.273438 1072.871094 527.390625 C 1071.691406 527.507812 1070.507812 527.566406 1069.320312 527.566406 C 1068.132812 527.566406 1066.949219 527.507812 1065.769531 527.390625 C 1064.585938 527.273438 1063.414062 527.101562 1062.25 526.871094 C 1061.085938 526.636719 1059.9375 526.351562 1058.800781 526.003906 C 1057.667969 525.660156 1056.550781 525.261719 1055.453125 524.808594 C 1054.355469 524.351562 1053.285156 523.847656 1052.238281 523.285156 C 1051.191406 522.726562 1050.175781 522.117188 1049.1875 521.457031 C 1048.203125 520.800781 1047.25 520.09375 1046.332031 519.339844 C 1045.414062 518.585938 1044.539062 517.792969 1043.699219 516.953125 C 1042.859375 516.113281 1042.0625 515.234375 1041.308594 514.316406 C 1040.558594 513.402344 1039.851562 512.449219 1039.191406 511.460938 C 1038.53125 510.476562 1037.921875 509.457031 1037.363281 508.410156 C 1036.804688 507.367188 1036.296875 506.292969 1035.84375 505.199219 C 1035.390625 504.101562 1034.992188 502.984375 1034.644531 501.847656 C 1034.300781 500.714844 1034.011719 499.5625 1033.78125 498.398438 C 1033.550781 497.234375 1033.375 496.0625 1033.261719 494.882812 C 1033.144531 493.703125 1033.085938 492.519531 1033.085938 491.332031 C 1033.085938 490.144531 1033.144531 488.960938 1033.261719 487.78125 C 1033.375 486.597656 1033.550781 485.425781 1033.78125 484.261719 C 1034.011719 483.097656 1034.300781 481.949219 1034.644531 480.8125 C 1034.992188 479.675781 1035.390625 478.5625 1035.84375 477.464844 C 1036.296875 476.367188 1036.804688 475.296875 1037.363281 474.25 C 1037.921875 473.203125 1038.53125 472.1875 1039.191406 471.199219 C 1039.851562 470.214844 1040.558594 469.261719 1041.308594 468.34375 C 1042.0625 467.425781 1042.859375 466.546875 1043.699219 465.710938 C 1044.539062 464.871094 1045.414062 464.074219 1046.332031 463.320312 C 1047.25 462.570312 1048.203125 461.863281 1049.1875 461.203125 C 1050.175781 460.542969 1051.191406 459.933594 1052.238281 459.375 C 1053.285156 458.816406 1054.355469 458.308594 1055.453125 457.855469 C 1056.550781 457.402344 1057.667969 457 1058.800781 456.65625 C 1059.9375 456.3125 1061.085938 456.023438 1062.25 455.792969 C 1063.414062 455.5625 1064.585938 455.386719 1065.769531 455.269531 C 1066.949219 455.15625 1068.132812 455.097656 1069.320312 455.097656 C 1070.507812 455.097656 1071.691406 455.15625 1072.871094 455.269531 C 1074.050781 455.386719 1075.226562 455.5625 1076.390625 455.792969 C 1077.554688 456.023438 1078.703125 456.3125 1079.839844 456.65625 C 1080.972656 457 1082.089844 457.402344 1083.1875 457.855469 C 1084.28125 458.308594 1085.355469 458.816406 1086.402344 459.375 C 1087.449219 459.933594 1088.464844 460.542969 1089.449219 461.203125 C 1090.4375 461.863281 1091.390625 462.570312 1092.308594 463.320312 C 1093.222656 464.074219 1094.101562 464.871094 1094.941406 465.710938 C 1095.78125 466.546875 1096.578125 467.425781 1097.328125 468.34375 C 1098.082031 469.261719 1098.789062 470.214844 1099.449219 471.199219 C 1100.105469 472.1875 1100.714844 473.203125 1101.277344 474.25 C 1101.835938 475.296875 1102.34375 476.367188 1102.796875 477.464844 C 1103.25 478.5625 1103.648438 479.675781 1103.992188 480.8125 C 1104.339844 481.949219 1104.625 483.097656 1104.859375 484.261719 C 1105.089844 485.425781 1105.261719 486.597656 1105.378906 487.78125 C 1105.496094 488.960938 1105.554688 490.144531 1105.554688 491.332031 Z M 1105.554688 491.332031 " fill-opacity="1" fill-rule="nonzero"/></g><path fill="#06464f" d="M 1068.609375 494.003906 C 1068.464844 494.003906 1068.304688 493.992188 1068.160156 493.980469 C 1067.804688 493.941406 1067.542969 493.625 1067.566406 493.269531 C 1067.605469 492.914062 1067.921875 492.648438 1068.277344 492.675781 C 1070.230469 492.859375 1071.890625 491.316406 1071.890625 489.40625 C 1071.890625 487.601562 1070.414062 486.125 1068.609375 486.125 C 1066.804688 486.125 1065.328125 487.601562 1065.328125 489.40625 C 1065.328125 489.566406 1065.339844 489.722656 1065.367188 489.882812 C 1065.417969 490.238281 1065.167969 490.566406 1064.8125 490.621094 C 1064.457031 490.671875 1064.128906 490.421875 1064.074219 490.066406 C 1064.050781 489.84375 1064.023438 489.617188 1064.023438 489.40625 C 1064.023438 486.878906 1066.078125 484.808594 1068.621094 484.808594 C 1071.164062 484.808594 1073.21875 486.863281 1073.21875 489.40625 C 1073.21875 491.949219 1071.136719 494.003906 1068.609375 494.003906 Z M 1068.609375 494.003906 " fill-opacity="1" fill-rule="nonzero"/><path fill="#06464f" d="M 1071.96875 496.71875 C 1069.4375 496.71875 1067.371094 494.664062 1067.371094 492.121094 C 1067.371094 489.578125 1069.425781 487.523438 1071.96875 487.523438 C 1074.511719 487.523438 1076.566406 489.59375 1076.566406 492.121094 C 1076.566406 494.652344 1074.5 496.71875 1071.96875 496.71875 Z M 1071.96875 488.839844 C 1070.164062 488.839844 1068.6875 490.316406 1068.6875 492.121094 C 1068.6875 493.925781 1070.164062 495.402344 1071.96875 495.402344 C 1073.773438 495.402344 1075.25 493.925781 1075.25 492.121094 C 1075.25 490.316406 1073.785156 488.839844 1071.96875 488.839844 Z M 1071.96875 488.839844 " fill-opacity="1" fill-rule="nonzero"/><path fill="#06464f" d="M 1066.710938 497.972656 C 1064.179688 497.972656 1062.113281 495.917969 1062.113281 493.375 C 1062.113281 490.84375 1064.167969 488.773438 1066.710938 488.773438 C 1067.515625 488.773438 1068.304688 488.984375 1069.003906 489.382812 C 1069.320312 489.566406 1069.425781 489.960938 1069.242188 490.277344 C 1069.054688 490.59375 1068.660156 490.699219 1068.34375 490.515625 C 1067.84375 490.222656 1067.277344 490.078125 1066.710938 490.078125 C 1064.90625 490.078125 1063.429688 491.554688 1063.429688 493.359375 C 1063.429688 495.164062 1064.90625 496.640625 1066.710938 496.640625 C 1067.816406 496.640625 1068.84375 496.085938 1069.453125 495.164062 C 1069.648438 494.863281 1070.058594 494.785156 1070.359375 494.980469 C 1070.664062 495.179688 1070.742188 495.585938 1070.546875 495.890625 C 1069.703125 497.195312 1068.265625 497.972656 1066.710938 497.972656 Z M 1066.710938 497.972656 " fill-opacity="1" fill-rule="nonzero"/><path fill="#06464f" d="M 1069.347656 511.492188 C 1066.394531 511.492188 1063.652344 509.34375 1061.625 505.429688 C 1059.660156 501.660156 1058.582031 496.679688 1058.582031 491.398438 C 1058.582031 486.113281 1059.660156 481.132812 1061.625 477.363281 C 1063.652344 473.464844 1066.40625 471.304688 1069.347656 471.304688 C 1072.285156 471.304688 1075.039062 473.449219 1077.066406 477.363281 C 1079.03125 481.132812 1080.109375 486.113281 1080.109375 491.398438 C 1080.109375 496.679688 1079.03125 501.660156 1077.066406 505.429688 C 1075.039062 509.34375 1072.296875 511.492188 1069.347656 511.492188 Z M 1069.347656 472.609375 C 1066.910156 472.609375 1064.578125 474.503906 1062.785156 477.957031 C 1060.914062 481.542969 1059.886719 486.3125 1059.886719 491.382812 C 1059.886719 496.457031 1060.914062 501.226562 1062.785156 504.808594 C 1064.578125 508.261719 1066.910156 510.160156 1069.347656 510.160156 C 1071.785156 510.160156 1074.117188 508.261719 1075.90625 504.808594 C 1077.777344 501.226562 1078.808594 496.457031 1078.808594 491.382812 C 1078.808594 486.3125 1077.777344 481.542969 1075.90625 477.957031 C 1074.117188 474.503906 1071.785156 472.609375 1069.347656 472.609375 Z M 1069.347656 472.609375 " fill-opacity="1" fill-rule="nonzero"/><path fill="#06464f" d="M 1060.203125 505.140625 C 1056.234375 505.140625 1053.324219 503.847656 1051.941406 501.449219 C 1050.464844 498.894531 1050.953125 495.441406 1053.3125 491.726562 C 1055.589844 488.140625 1059.371094 484.714844 1063.957031 482.066406 C 1068.542969 479.417969 1073.40625 477.863281 1077.648438 477.679688 C 1082.035156 477.484375 1085.277344 478.789062 1086.753906 481.355469 C 1088.226562 483.925781 1087.738281 487.363281 1085.382812 491.082031 C 1083.101562 494.664062 1079.320312 498.089844 1074.734375 500.738281 C 1070.148438 503.386719 1065.289062 504.941406 1061.046875 505.125 C 1060.753906 505.125 1060.480469 505.140625 1060.203125 505.140625 Z M 1078.476562 478.957031 C 1078.226562 478.957031 1077.964844 478.957031 1077.6875 478.972656 C 1073.65625 479.144531 1069.003906 480.644531 1064.601562 483.1875 C 1060.203125 485.730469 1056.578125 489.011719 1054.40625 492.410156 C 1052.324219 495.679688 1051.847656 498.65625 1053.0625 500.777344 C 1054.285156 502.898438 1057.09375 503.96875 1060.964844 503.796875 C 1065 503.625 1069.648438 502.121094 1074.050781 499.578125 C 1078.449219 497.035156 1082.074219 493.753906 1084.25 490.355469 C 1086.332031 487.089844 1086.804688 484.109375 1085.59375 481.988281 C 1084.472656 480.027344 1081.957031 478.957031 1078.476562 478.957031 Z M 1078.476562 478.957031 " fill-opacity="1" fill-rule="nonzero"/><path fill="#06464f" d="M 1078.476562 505.140625 C 1078.199219 505.140625 1077.925781 505.140625 1077.648438 505.125 C 1073.40625 504.941406 1068.554688 503.375 1063.957031 500.738281 C 1059.371094 498.089844 1055.589844 494.664062 1053.3125 491.082031 C 1050.953125 487.378906 1050.464844 483.925781 1051.941406 481.355469 C 1053.417969 478.800781 1056.65625 477.484375 1061.046875 477.679688 C 1065.289062 477.863281 1070.136719 479.433594 1074.734375 482.066406 C 1079.332031 484.703125 1083.101562 488.140625 1085.382812 491.726562 C 1087.738281 495.429688 1088.226562 498.882812 1086.753906 501.449219 C 1085.355469 503.835938 1082.445312 505.140625 1078.476562 505.140625 Z M 1060.203125 478.957031 C 1056.722656 478.957031 1054.21875 480.027344 1053.074219 482.003906 C 1051.847656 484.125 1052.324219 487.089844 1054.417969 490.371094 C 1056.589844 493.769531 1060.203125 497.050781 1064.617188 499.59375 C 1069.015625 502.136719 1073.667969 503.636719 1077.699219 503.808594 C 1081.574219 503.980469 1084.394531 502.898438 1085.605469 500.792969 C 1086.816406 498.683594 1086.355469 495.707031 1084.261719 492.425781 C 1082.085938 489.023438 1078.476562 485.746094 1074.0625 483.203125 C 1069.648438 480.660156 1065.011719 479.15625 1060.980469 478.984375 C 1060.714844 478.972656 1060.453125 478.957031 1060.203125 478.957031 Z M 1060.203125 478.957031 " fill-opacity="1" fill-rule="nonzero"/></svg>